<?xml version="1.0" encoding="UTF-8" standalone="no"?>
<!-- Created with Inkscape (http://www.inkscape.org/) -->

<svg
   xmlns:dc="http://purl.org/dc/elements/1.1/"
   xmlns:cc="http://creativecommons.org/ns#"
   xmlns:rdf="http://www.w3.org/1999/02/22-rdf-syntax-ns#"
   xmlns:svg="http://www.w3.org/2000/svg"
   xmlns="http://www.w3.org/2000/svg"
   xmlns:sodipodi="http://sodipodi.sourceforge.net/DTD/sodipodi-0.dtd"
   xmlns:inkscape="http://www.inkscape.org/namespaces/inkscape"
   width="37.743164mm"
   height="22.110769mm"
   viewBox="0 0 37.743164 22.110769"
   version="1.1"
   id="svg8"
   sodipodi:docname="Anadolu_hayat_logo.svg"
   inkscape:version="0.92.3 (2405546, 2018-03-11)">
  <defs
     id="defs2">
    <clipPath
       id="clipPath36"
       clipPathUnits="userSpaceOnUse">
      <path
         inkscape:connector-curvature="0"
         id="path34"
         d="m 0,64.621 h 595.275 v 729.08 H 0 Z" />
    </clipPath>
    <clipPath
       id="clipPath58"
       clipPathUnits="userSpaceOnUse">
      <path
         inkscape:connector-curvature="0"
         id="path56"
         d="M 0,0 H 595.276 V 793.701 H 0 Z" />
    </clipPath>
    <clipPath
       id="clipPath98"
       clipPathUnits="userSpaceOnUse">
      <path
         inkscape:connector-curvature="0"
         id="path96"
         d="M 0,0 H 595.276 V 793.701 H 0 Z" />
    </clipPath>
    <clipPath
       id="clipPath122"
       clipPathUnits="userSpaceOnUse">
      <path
         inkscape:connector-curvature="0"
         id="path120"
         d="M 0,0 H 595.276 V 793.701 H 0 Z" />
    </clipPath>
    <clipPath
       id="clipPath138"
       clipPathUnits="userSpaceOnUse">
      <path
         inkscape:connector-curvature="0"
         id="path136"
         d="M 0,0 H 595.276 V 793.701 H 0 Z" />
    </clipPath>
    <clipPath
       id="clipPath158"
       clipPathUnits="userSpaceOnUse">
      <path
         inkscape:connector-curvature="0"
         id="path156"
         d="M 0,0 H 595.276 V 793.701 H 0 Z" />
    </clipPath>
    <clipPath
       id="clipPath182"
       clipPathUnits="userSpaceOnUse">
      <path
         inkscape:connector-curvature="0"
         id="path180"
         d="M 0,0 H 595.276 V 793.701 H 0 Z" />
    </clipPath>
  </defs>
  <sodipodi:namedview
     id="base"
     pagecolor="#00ffff"
     bordercolor="#666666"
     borderopacity="1.0"
     inkscape:pageopacity="0"
     inkscape:pageshadow="2"
     inkscape:zoom="5.6"
     inkscape:cx="63.589074"
     inkscape:cy="50.598019"
     inkscape:document-units="mm"
     inkscape:current-layer="layer1"
     showgrid="false"
     inkscape:window-width="1920"
     inkscape:window-height="1001"
     inkscape:window-x="-9"
     inkscape:window-y="-9"
     inkscape:window-maximized="1"
     fit-margin-top="0"
     fit-margin-left="0"
     fit-margin-right="0"
     fit-margin-bottom="0" />
  <metadata
     id="metadata5">
    <rdf:RDF>
      <cc:Work
         rdf:about="">
        <dc:format>image/svg+xml</dc:format>
        <dc:type
           rdf:resource="http://purl.org/dc/dcmitype/StillImage" />
        <dc:title></dc:title>
      </cc:Work>
    </rdf:RDF>
  </metadata>
  <g
     inkscape:label="Layer 1"
     inkscape:groupmode="layer"
     id="layer1"
     transform="translate(-154.98675,-228.59714)">
    <g
       transform="matrix(0.35277777,0,0,-0.35277777,1.2113418,260.10718)"
       inkscape:label="AHE_2017_AnnualReports"
       id="g28">
      <g
         id="g30">
        <g
           clip-path="url(#clipPath36)"
           id="g32">
          <g
             id="g38">
            <g
               transform="matrix(597.74522,0,0,731.44538,-1.1114244,63.371139)"
               id="g40" />
          </g>
        </g>
      </g>
      <g
         transform="translate(456.2757,71.811)"
         id="g48" />
      <g
         id="g52">
        <g
           clip-path="url(#clipPath58)"
           id="g54">
          <g
             transform="translate(491.46,44.03)"
             id="g60">
            <path
               inkscape:connector-curvature="0"
               id="path62"
               style="fill:#ffffff;fill-opacity:1;fill-rule:nonzero;stroke:none"
               d="M 0,0 C 0.07,0.223 0.143,0.425 0.223,0.615 0.302,0.806 0.388,0.977 0.474,1.137 0.562,1.292 0.645,1.418 0.726,1.517 0.804,1.615 0.877,1.684 0.943,1.725 0.975,1.74 0.999,1.75 1.017,1.754 1.041,1.759 1.061,1.763 1.078,1.759 1.099,1.754 1.118,1.752 1.13,1.742 1.146,1.735 1.16,1.725 1.171,1.704 1.21,1.637 1.21,1.525 1.181,1.369 1.146,1.21 1.072,1.001 0.961,0.747 0.853,0.499 0.715,0.219 0.546,-0.097 0.378,-0.408 -0.108,-0.326 0,0" />
          </g>
          <g
             transform="translate(440.1348,44.1772)"
             id="g64">
            <path
               inkscape:connector-curvature="0"
               id="path66"
               style="fill:#000000;fill-opacity:1;fill-rule:nonzero;stroke:none"
               d="M 0,0 0.585,2.712 H 0.704 C 0.761,2.338 0.819,1.945 0.912,1.567 L 1.287,0 Z m -0.577,-2.112 h 2.429 l 0.293,-1.111 h 3.4 l -3.154,8.9 h -3.552 l -3.075,-8.9 h 3.403 z" />
          </g>
          <g
             transform="translate(459.71,44.1772)"
             id="g68">
            <path
               inkscape:connector-curvature="0"
               id="path70"
               style="fill:#000000;fill-opacity:1;fill-rule:nonzero;stroke:none"
               d="M 0,0 0.585,2.71 H 0.704 C 0.762,2.338 0.822,1.945 0.916,1.567 L 1.291,0 Z m -0.575,-2.112 h 2.429 l 0.29,-1.111 h 3.404 l -3.156,8.9 h -3.554 l -3.072,-8.9 h 3.4 z" />
          </g>
          <g
             transform="translate(468.9658,47.0674)"
             id="g72">
            <path
               inkscape:connector-curvature="0"
               id="path74"
               style="fill:#000000;fill-opacity:1;fill-rule:nonzero;stroke:none"
               d="m 0,0 h 0.199 c 1.173,0 1.889,-0.53 1.889,-1.781 0,-1.171 -0.823,-1.664 -1.889,-1.664 H 0 Z m -3.215,-6.114 h 4.069 c 2.592,0 4.447,1.675 4.447,4.323 0,3.268 -2.278,4.578 -5.244,4.578 h -3.272 z" />
          </g>
          <g
             transform="translate(479.6484,47.0674)"
             id="g76">
            <path
               inkscape:connector-curvature="0"
               id="path78"
               style="fill:#000000;fill-opacity:1;fill-rule:nonzero;stroke:none"
               d="m 0,0 c 1.02,0 1.652,-0.79 1.652,-1.735 0,-1.015 -0.681,-1.71 -1.652,-1.71 -0.975,0 -1.655,0.695 -1.655,1.71 C -1.655,-0.79 -1.023,0 0,0 m 0,2.926 c -2.689,0 -4.894,-1.815 -4.894,-4.615 0,-2.856 2.193,-4.566 4.894,-4.566 2.696,0 4.89,1.71 4.89,4.566 0,2.8 -2.208,4.615 -4.89,4.615" />
          </g>
          <g
             transform="translate(516.3896,44.1804)"
             id="g80">
            <path
               inkscape:connector-curvature="0"
               id="path82"
               style="fill:#000000;fill-opacity:1;fill-rule:nonzero;stroke:none"
               d="M 0,0 0.587,2.717 H 0.704 C 0.763,2.339 0.821,1.948 0.914,1.572 L 1.292,0 Z m -0.575,-2.109 h 2.428 l 0.294,-1.112 h 3.4 L 2.394,5.678 H -1.16 l -3.073,-8.899 h 3.4 z" />
          </g>
        </g>
      </g>
      <g
         transform="translate(446.1284,40.9539)"
         id="g84">
        <path
           inkscape:connector-curvature="0"
           id="path86"
           style="fill:#000000;fill-opacity:1;fill-rule:nonzero;stroke:none"
           d="M 0,0 H 3.073 L 3.076,4.709 5.794,0 H 8.866 V 8.9 H 5.794 L 5.797,4.269 3.084,8.9 H 0 Z" />
      </g>
      <g
         transform="translate(503.5225,40.9592)"
         id="g88">
        <path
           inkscape:connector-curvature="0"
           id="path90"
           style="fill:#000000;fill-opacity:1;fill-rule:nonzero;stroke:none"
           d="m 0,0 h 3.095 v 3.094 h 1.97 V 0 H 8.161 V 8.899 H 5.065 V 5.902 H 3.095 V 8.899 H 0 Z" />
      </g>
      <g
         id="g92">
        <g
           clip-path="url(#clipPath98)"
           id="g94">
          <g
             transform="translate(519.9775,49.8584)"
             id="g100">
            <path
               inkscape:connector-curvature="0"
               id="path102"
               style="fill:#000000;fill-opacity:1;fill-rule:nonzero;stroke:none"
               d="M 0,0 3.083,-5.065 V -8.899 H 6.23 v 3.834 L 9.254,0 H 5.64 c 0,0 -0.83,-2.042 -0.924,-2.326 H 4.62 L 3.635,0 Z" />
          </g>
          <g
             transform="translate(531.5635,44.1689)"
             id="g104">
            <path
               inkscape:connector-curvature="0"
               id="path106"
               style="fill:#000000;fill-opacity:1;fill-rule:nonzero;stroke:none"
               d="M 0,0 0.588,2.711 H 0.705 C 0.762,2.336 0.822,1.945 0.915,1.569 L 1.291,0 Z M -0.572,-2.114 H 1.853 L 2.15,-3.223 H 5.549 L 2.395,5.678 h -3.556 l -3.071,-8.901 h 3.403 z" />
          </g>
        </g>
      </g>
      <g
         transform="translate(536.1333,46.9622)"
         id="g108">
        <path
           inkscape:connector-curvature="0"
           id="path110"
           style="fill:#000000;fill-opacity:1;fill-rule:nonzero;stroke:none"
           d="M 0,0 H 1.768 V -6.008 H 4.981 V 0 H 6.754 V 2.892 H 0 Z" />
      </g>
      <g
         transform="translate(455.1069,26.6436)"
         id="g112">
        <path
           inkscape:connector-curvature="0"
           id="path114"
           style="fill:#000000;fill-opacity:1;fill-rule:nonzero;stroke:none"
           d="M 0,0 V 8.897 H 5.977 V 6.467 H 3.252 V 5.618 H 5.739 V 3.303 H 3.252 V 2.433 H 6.075 V 0 Z" />
      </g>
      <g
         id="g116">
        <g
           clip-path="url(#clipPath122)"
           id="g118">
          <g
             transform="translate(462.0835,26.6436)"
             id="g124">
            <path
               inkscape:connector-curvature="0"
               id="path126"
               style="fill:#000000;fill-opacity:1;fill-rule:nonzero;stroke:none"
               d="M 0,0 1.435,8.897 H 4.759 L 5.985,4.225 H 6.062 C 6.096,4.446 6.171,4.842 6.294,5.41 l 0.998,3.487 h 3.287 L 12.042,0 H 8.921 L 8.482,4.879 H 8.428 C 8.352,4.489 8.283,4.195 8.216,3.994 L 6.928,0 H 5.042 L 3.887,3.764 C 3.779,4.125 3.717,4.495 3.693,4.879 H 3.588 C 3.575,4.679 3.547,4.316 3.499,3.8 L 3.12,0 Z" />
          </g>
        </g>
      </g>
      <g
         transform="translate(475.2085,26.6436)"
         id="g128">
        <path
           inkscape:connector-curvature="0"
           id="path130"
           style="fill:#000000;fill-opacity:1;fill-rule:nonzero;stroke:none"
           d="M 0,0 V 8.897 H 5.982 V 6.467 H 3.254 V 5.618 H 5.74 V 3.303 H 3.254 V 2.433 H 6.077 V 0 Z" />
      </g>
      <g
         id="g132">
        <g
           clip-path="url(#clipPath138)"
           id="g134">
          <g
             transform="translate(482.5977,26.6436)"
             id="g140">
            <path
               inkscape:connector-curvature="0"
               id="path142"
               style="fill:#000000;fill-opacity:1;fill-rule:nonzero;stroke:none"
               d="M 0,0 V 8.897 H 3.138 L 3.071,5.036 H 3.138 C 3.18,5.241 3.333,5.572 3.589,6.044 L 5.142,8.897 H 8.668 L 5.893,4.566 8.96,0 H 5.212 L 3.688,2.697 C 3.615,2.808 3.511,2.975 3.369,3.199 3.25,3.382 3.175,3.559 3.138,3.73 H 3.071 L 3.138,0 Z" />
          </g>
        </g>
      </g>
      <g
         transform="translate(492.0996,26.6436)"
         id="g144">
        <path
           inkscape:connector-curvature="0"
           id="path146"
           style="fill:#000000;fill-opacity:1;fill-rule:nonzero;stroke:none"
           d="M 0,0 V 8.897 H 3.227 V 2.854 H 5.934 V 0 Z" />
      </g>
      <g
         transform="translate(503.5703,26.6436)"
         id="g148">
        <path
           inkscape:connector-curvature="0"
           id="path150"
           style="fill:#000000;fill-opacity:1;fill-rule:nonzero;stroke:none"
           d="M 0,0 V 8.897 H 3.23 V 2.854 H 5.935 V 0 Z" />
      </g>
      <g
         id="g152">
        <g
           clip-path="url(#clipPath158)"
           id="g154">
          <g
             transform="translate(514.7236,26.6436)"
             id="g160">
            <path
               inkscape:connector-curvature="0"
               id="path162"
               style="fill:#000000;fill-opacity:1;fill-rule:nonzero;stroke:none"
               d="M 0,0 V 8.897 H 3.14 L 3.067,5.036 H 3.14 C 3.181,5.241 3.33,5.572 3.587,6.044 L 5.14,8.897 H 8.666 L 5.888,4.566 8.961,0 H 5.208 L 3.685,2.697 C 3.613,2.808 3.509,2.975 3.366,3.199 3.25,3.382 3.175,3.559 3.14,3.73 H 3.067 L 3.14,0 Z" />
          </g>
        </g>
      </g>
      <path
         inkscape:connector-curvature="0"
         id="path164"
         style="fill:#000000;fill-opacity:1;fill-rule:nonzero;stroke:none"
         d="m 510.339,38.268 h 3.224 v -1.771 h -3.224 z" />
      <path
         inkscape:connector-curvature="0"
         id="path166"
         style="fill:#000000;fill-opacity:1;fill-rule:nonzero;stroke:none"
         d="m 510.339,35.541 h 3.224 v -8.897 h -3.224 z" />
      <path
         inkscape:connector-curvature="0"
         id="path168"
         style="fill:#000000;fill-opacity:1;fill-rule:nonzero;stroke:none"
         d="m 499.071,38.268 h 3.229 v -1.771 h -3.229 z" />
      <path
         inkscape:connector-curvature="0"
         id="path170"
         style="fill:#000000;fill-opacity:1;fill-rule:nonzero;stroke:none"
         d="m 499.071,35.541 h 3.229 v -8.897 h -3.229 z" />
      <g
         transform="translate(485.1436,40.9539)"
         id="g172">
        <path
           inkscape:connector-curvature="0"
           id="path174"
           style="fill:#000000;fill-opacity:1;fill-rule:nonzero;stroke:none"
           d="M 0,0 H 5.912 V 2.857 H 3.216 V 8.9 H 0 Z" />
      </g>
      <g
         id="g176">
        <g
           clip-path="url(#clipPath182)"
           id="g178">
          <g
             transform="translate(496.4897,49.8542)"
             id="g184">
            <path
               inkscape:connector-curvature="0"
               id="path186"
               style="fill:#000000;fill-opacity:1;fill-rule:nonzero;stroke:none"
               d="m 0,0 v -4.958 c 0,-0.696 -0.025,-1.31 -0.879,-1.31 -0.857,0 -0.881,0.614 -0.881,1.31 V 0 h -3.215 v -5.266 c 0,-2.595 1.621,-3.776 4.096,-3.776 2.473,0 4.092,1.181 4.092,3.776 V 0 Z" />
          </g>
        </g>
      </g>
      <g
         transform="translate(489.3931,89.3198)"
         id="g188">
        <path
           inkscape:connector-curvature="0"
           id="path190"
           style="fill:#52a145;fill-opacity:1;fill-rule:nonzero;stroke:none"
           d="M 0,0 6.657,-4.391 0,-8.786 -6.657,-4.391 Z" />
      </g>
      <g
         transform="translate(489.3931,78.3464)"
         id="g192">
        <path
           inkscape:connector-curvature="0"
           id="path194"
           style="fill:#005daa;fill-opacity:1;fill-rule:nonzero;stroke:none"
           d="M 0,0 8.323,5.5 13.314,2.196 0,-6.59 -13.315,2.196 -8.322,5.5 Z" />
      </g>
      <g
         transform="translate(489.3931,69.5491)"
         id="g196">
        <path
           inkscape:connector-curvature="0"
           id="path198"
           style="fill:#005daa;fill-opacity:1;fill-rule:nonzero;stroke:none"
           d="M 0,0 14.981,9.885 19.97,6.603 0,-6.589 -19.971,6.577 l 4.994,3.308 z" />
      </g>
      <g
         transform="translate(489.3931,60.7644)"
         id="g200">
        <path
           inkscape:connector-curvature="0"
           id="path202"
           style="fill:#005daa;fill-opacity:1;fill-rule:nonzero;stroke:none"
           d="M 0,0 21.636,14.302 26.629,10.981 0,-6.589 l -26.628,17.57 4.993,3.321 z" />
      </g>
    </g>
  </g>
</svg>
