<svg width="140" height="40" viewBox="0 0 140 40" fill="none" xmlns="http://www.w3.org/2000/svg">
<path d="M23.4523 2.89434L19.1976 16.9899C19.1133 17.269 18.8793 17.4811 18.5873 17.5418L4.08295 20.5422C3.45572 20.6719 2.92864 20.0737 3.15423 19.4868L7.8242 7.34645C7.90748 7.1292 8.08563 6.95828 8.30911 6.879L22.3981 1.92443C23.0243 1.70409 23.6399 2.27141 23.4523 2.89537V2.89434Z" fill="#FF0037"/>
<path d="M18.0266 27.6476L21.2629 25.2908C21.5507 25.0808 21.946 25.0808 22.2338 25.2908L32.9642 33.1026C33.506 33.497 33.3458 34.3279 32.6943 34.5029L19.3253 38.0963C18.8288 38.2302 18.3323 37.8842 18.2996 37.3828L17.7019 28.3354C17.684 28.0677 17.8063 27.8093 18.0266 27.6487V27.6476Z" fill="#FF0037"/>
<path d="M27.298 26.9135L25.9687 22.5118C25.8727 22.1937 25.9897 21.8498 26.2617 21.6511L32.4739 17.1279C32.768 16.9138 33.1728 16.9189 33.4606 17.1403L39.5643 21.824C40.0576 22.2019 39.9438 22.9608 39.3608 23.1852L28.3743 27.4273C27.9305 27.5982 27.4318 27.3614 27.2969 26.9145L27.298 26.9135Z" fill="#FF0037"/>
<path d="M14.4898 19.6617L17.2359 21.6571C17.5089 21.8558 17.626 22.1987 17.53 22.5179L15.6494 28.7502C15.5176 29.1878 15.0359 29.4267 14.5963 29.2722L9.13568 27.3612C8.62968 27.1841 8.43571 26.5839 8.74774 26.1555L13.3429 19.8388C13.6064 19.4764 14.124 19.396 14.4898 19.6617Z" fill="#FF0037"/>
<path d="M38.5471 13.4131L24.8555 16.2456C24.4413 16.3311 24.028 16.0912 23.9089 15.6937L22.4426 10.839C22.2886 10.3304 22.6787 9.82178 23.2216 9.82178H37.3222C37.6268 9.82178 37.9062 9.98858 38.0453 10.2542L39.1037 12.2764C39.3472 12.7418 39.0721 13.305 38.5492 13.4131H38.5471Z" fill="#FF0037"/>
<path d="M48.2504 25.6924V26.7714C48.2504 26.9918 48.0996 27.139 47.874 27.139H45.3387C45.1131 27.139 44.9624 26.9918 44.9624 26.7714V11.4248C44.9624 11.2292 45.0625 11.0819 45.2892 11.0078L47.874 10.2727C48.1249 10.1985 48.301 10.3458 48.301 10.5918V16.3042C49.1295 15.5196 50.7603 14.6867 52.9193 14.6867C57.3362 14.6867 59.7461 16.9168 59.7461 21.0117C59.7461 25.1065 57.3362 27.4839 52.9193 27.4839C50.7603 27.4839 49.1295 26.6499 48.2514 25.6944L48.2504 25.6924ZM56.6584 21.0837C56.6584 18.8042 55.0266 17.4306 52.3416 17.4306C49.6566 17.4306 48.301 18.8031 48.301 21.1568C48.301 23.3881 49.7568 24.7111 52.3416 24.7111C54.9264 24.7111 56.6584 23.3386 56.6584 21.0827V21.0837ZM61.5519 21.0106C61.5519 16.9168 63.9617 14.6856 68.3787 14.6856C70.5376 14.6856 72.219 15.5186 73.0465 16.3032V15.2488C73.0465 15.0285 73.1973 14.8813 73.4229 14.8813H75.9581C76.1837 14.8813 76.3345 15.0285 76.3345 15.2488V26.7704C76.3345 26.9907 76.1837 27.138 75.9581 27.138H73.3733C73.1477 27.138 72.997 26.9907 72.997 26.7704V25.6913C72.1684 26.6479 70.5376 27.4808 68.3787 27.4808C63.9617 27.4808 61.5519 25.2012 61.5519 21.0086V21.0106ZM73.1983 21.231V21.0837C73.1983 18.8042 71.693 17.4306 69.1071 17.4306C66.5212 17.4306 64.7903 18.8031 64.7903 21.0837C64.7903 23.3644 66.4211 24.7122 69.1071 24.7122C71.7931 24.7122 73.1983 23.3881 73.1983 21.231ZM79.7995 26.7714V11.4248C79.7995 11.2292 79.8997 11.0819 80.1253 11.0078L82.7101 10.2727C82.961 10.1985 83.137 10.3458 83.137 10.5918V20.0788L88.9097 15.1757C89.0857 15.0285 89.3366 14.8813 89.5369 14.8813H92.6741C93.1506 14.8813 93.3519 15.2241 92.9756 15.5433L87.9556 19.9069L94.0793 26.5016C94.3555 26.8208 94.2553 27.139 93.879 27.139H90.7914C90.3402 27.139 90.0882 27.0906 89.812 26.7961L85.57 22.1134H83.136V26.7714C83.136 26.9918 82.9852 27.139 82.7596 27.139H80.1748C79.9492 27.139 79.7985 26.9918 79.7985 26.7714H79.7995ZM94.6074 21.0106C94.6074 16.9168 97.1427 14.6856 102.312 14.6856C104.646 14.6856 106.454 15.1016 108.034 15.8131C108.26 15.9109 108.311 16.1076 108.21 16.3032L107.382 18.2883C107.282 18.5334 107.106 18.5828 106.88 18.485C105.575 17.896 104.321 17.4553 102.312 17.4553C99.3259 17.4553 97.7446 18.7053 97.7446 21.0096C97.7446 23.3139 99.3755 24.7111 102.312 24.7111C104.295 24.7111 105.525 24.2447 106.88 23.559C107.106 23.4612 107.282 23.5106 107.382 23.7309L108.26 25.6676C108.36 25.8643 108.335 26.0352 108.16 26.1341C106.528 27.0412 104.671 27.4819 102.311 27.4819C97.1406 27.4819 94.6064 25.2023 94.6064 21.0096L94.6074 21.0106ZM109.817 21.0106C109.817 16.9168 112.352 14.6856 117.146 14.6856C121.939 14.6856 124.173 16.7933 124.173 20.6915V21.7942C124.173 22.0392 124.022 22.1865 123.771 22.1865H113.129C113.656 23.7793 115.238 24.7111 117.822 24.7111C119.629 24.7111 120.834 24.2694 122.19 23.6084C122.415 23.5106 122.591 23.559 122.692 23.8051L123.47 25.5945C123.57 25.8149 123.544 25.9621 123.369 26.0599C121.813 26.9423 119.931 27.4819 117.822 27.4819C112.351 27.4819 109.816 25.2023 109.816 21.0096L109.817 21.0106ZM117.147 17.2844C115.038 17.2844 113.582 18.1915 113.13 19.736H120.986C120.76 18.2162 119.354 17.2844 117.146 17.2844H117.147ZM126.759 26.7714V11.4248C126.759 11.2292 126.859 11.0819 127.085 11.0078L129.67 10.2727C129.921 10.1985 130.097 10.3458 130.097 10.5918V26.7714C130.097 26.9918 129.946 27.139 129.721 27.139H127.136C126.91 27.139 126.76 26.9918 126.76 26.7714H126.759ZM133.561 26.7714V11.4248C133.561 11.2292 133.661 11.0819 133.887 11.0078L136.472 10.2727C136.723 10.1985 136.899 10.3458 136.899 10.5918V26.7714C136.899 26.9918 136.748 27.139 136.522 27.139H133.937C133.712 27.139 133.561 26.9918 133.561 26.7714Z" fill="#FF0037"/>
</svg>
