<svg xmlns="http://www.w3.org/2000/svg" viewBox="0 0 1360.63 1306.29"><defs><style>.cls-1{fill:#002b49;}.cls-2{fill:#0082ca;}</style></defs><g id="Layer_2" data-name="Layer 2"><g id="Layer_1-2" data-name="Layer 1"><path class="cls-1" d="M12.6,661.33H214.79v54.92H74.29v62.09H196.08v48.95H74.29v71.64H220.36v54.93H12.6Z"/><path class="cls-1" d="M325,953.86H269.31v-197h29.85l15.12,26.27c11.94-18.31,31.45-29.06,55.73-29.06,19.1,0,37.8,7.17,52.93,19.11l-25.47,43c-9.16-6.77-18.71-10.75-30.65-10.75-20.7,0-38.21,14.73-41.79,35.82Z"/><path class="cls-1" d="M535.57,906.9c17.12,0,29.85-6,41.39-17.12L614.78,926c-21.1,20.3-47.77,31.84-80,31.84-61.3,0-103.09-45.77-103.09-101.89s40.2-101.89,101.5-101.89c34.22,0,63.28,14.33,83.57,39.8l-40.59,33.43C565.82,813.76,551.49,805,534,805c-27.46,0-47.36,21.89-47.36,50.94S507.31,906.9,535.57,906.9Z"/><path class="cls-1" d="M684.42,658.54a32.45,32.45,0,0,1,32.64,32.24,32.79,32.79,0,0,1-32.64,32.64c-17.51,0-32.23-14.73-32.23-32.64A32.35,32.35,0,0,1,684.42,658.54Zm27.86,295.32H656.56V757.64h55.72Z"/><path class="cls-1" d="M858,1002c-13.13,32.63-36.61,50.94-73.23,50.94a154.76,154.76,0,0,1-28.26-2.78l4-45.77h21.1c13.93,0,22.68-5.58,27.86-17.91l13.13-33L745.32,757.64h57.31l47,125,47.36-125h57.71Z"/><path class="cls-1" d="M1123,892.17l38.2,27.86c-21.49,25.47-51.34,37.81-86.36,37.81-64.48,0-105.48-44.18-105.48-101.89,0-56.52,38.21-101.89,99.11-101.89,58.5,0,98.3,45.37,98.3,99.1a169.1,169.1,0,0,1-.79,17.92h-140.5c2,25.47,23.09,42.18,50.55,42.18C1094,913.26,1111.08,906.5,1123,892.17Zm-97.12-54.92h84.78c-.8-21.9-17.52-40.6-41.79-40.6C1044.22,796.65,1028.3,814.56,1025.91,837.25Z"/><path class="cls-1" d="M1327.2,810.18a66.41,66.41,0,0,0-39.4-13.53c-14.33,0-21.89,7.16-21.89,16.71,0,6.77,4.77,13.14,16.31,15.53l17.52,4.37c44.17,11.94,60.89,33,60.89,62.09,0,33-28.26,62.49-78.41,62.49-29.85,0-58.11-9.55-78-27.86l27.07-35.82c12.73,12.74,31.44,19.9,47,19.9,17.91,0,25.08-9.55,25.08-19.5,0-8-6-15.13-19.11-18.31l-23.08-7.17c-24.28-6.36-51.74-21.49-51.74-55.32,0-32.63,26.67-59.7,74.42-59.7,25.08,0,48.56,6.77,68.46,21.1Z"/><path class="cls-1" d="M104.34,1304.69h-12v-55.3H25.64v55.3h-12V1186.88h12v51.45H92.32v-51.45h12Z"/><path class="cls-1" d="M288.17,1185.28c33.82,0,59.31,27.72,59.31,60.58s-25.49,60.43-59.31,60.43-59.3-27.57-59.3-60.43S254.35,1185.28,288.17,1185.28Zm0,109.47c27.09,0,47.13-22.6,47.13-48.89,0-26.12-20-49-47.13-49s-47,22.92-47,49C241.21,1272.15,261.09,1294.75,288.17,1294.75Z"/><path class="cls-1" d="M472,1186.88h12v106.75H545.9v11.06H472Z"/><path class="cls-1" d="M666.42,1186.88h38.15c37,0,60.58,24.2,60.58,59s-23.72,58.83-60.74,58.83h-38Zm38.15,11.06H678.44v95.69h26c29.65,0,48.24-19.08,48.24-47.77C752.65,1217.33,734.06,1197.94,704.57,1197.94Z"/><path class="cls-1" d="M895.45,1152.1a9.1,9.1,0,0,1,9,9.13,8.93,8.93,0,0,1-9,8.82,8.79,8.79,0,0,1-8.81-8.82A9,9,0,0,1,895.45,1152.1Zm6.25,152.59h-12V1186.88h12Z"/><path class="cls-1" d="M1126.57,1304.69H1116l-72.13-96.81v96.81h-12V1186.88h10.74l72.13,97v-97h11.86Z"/><path class="cls-1" d="M1304.8,1242h54.81v43c-12.18,14.27-28.69,21.32-48.08,21.32-34.46,0-60.27-27.25-60.27-60.43,0-33.5,25.65-60.58,60-60.58a60.92,60.92,0,0,1,44.08,18.59l-8.5,7.85c-8.49-9-21.8-14.9-35.58-14.9-28,0-47.61,22.76-47.61,49,0,26.61,19.88,48.89,47.93,48.89,14.26,0,27.73-5,36.06-14.1v-27.57H1304.8Z"/><line class="cls-1" y1="1090.67" x2="892.12" y2="1090.67"/><rect class="cls-1" y="1086.54" width="892.12" height="8.25"/><path class="cls-1" d="M1025.92,1105.88v.25c.32.81.4,1.29.24,1.45a2.56,2.56,0,0,0-.24,1.46,2.77,2.77,0,0,1-1-1c-.16-.33.08-.65.73-1a8.46,8.46,0,0,1-.73-4.12c0-1.94.24-3.07.73-3.4l-.37-.36q.12.12-.6.12a5.28,5.28,0,0,0-.73,1.94c-.16.81,0,1,.49.73a6.21,6.21,0,0,0-.61,3.51,35.09,35.09,0,0,0,.36,3.76,4.41,4.41,0,0,0-.6,3.39,9.07,9.07,0,0,1-.12,3.88c0,.32,0,.4.12.24s.2-.08.36.24a6.31,6.31,0,0,0-.61,3.52,14.64,14.64,0,0,0,.61,3.76c0,.32-.32.81-1,1.45a19.23,19.23,0,0,1,.12,7.15,22.42,22.42,0,0,0-.12,6.91,1,1,0,0,1-.12.6,1,1,0,0,0-.12.61q0,.24.12.24t.12-.24q0,3.88-.36,7.63c-.24,2.51-.37,5.14-.37,7.88.33.33.53.41.61.24s.12-.08.12.25v4.24a17.39,17.39,0,0,0,.49,3.76c.16.32.12.56-.13.72a.81.81,0,0,0-.36.73c.32,3.07.57,6.14.73,9.21a24.1,24.1,0,0,0,1.94,8.48,14.62,14.62,0,0,0-.85-4.48,9.45,9.45,0,0,1-.36-5c0,.48.08.73.24.73s.24-.17.24-.49-.16-.4-.48-.24a3.59,3.59,0,0,0,.24-1.45c0-.65-.24-1-.73-1a5.2,5.2,0,0,0,0-4.37c.16-2.9.2-5.53.12-7.87a58.31,58.31,0,0,1,.37-8.12,2.26,2.26,0,0,1-.37-1.82,6.21,6.21,0,0,1,.61-2.3c-.33-.16-.49-.61-.49-1.34a2.13,2.13,0,0,1,.49-1.57.81.81,0,0,0-.37-.73.81.81,0,0,1-.36-.73,7.72,7.72,0,0,0,.36-4.12,5,5,0,0,1,.37-3.39,13,13,0,0,1,.72,3,3.87,3.87,0,0,1-.72,3,2.12,2.12,0,0,1,.6,1.82,2.59,2.59,0,0,1-.6,1.57,17,17,0,0,1,.48,6.79,20.76,20.76,0,0,0,0,6.3l-.48,1.45a57.46,57.46,0,0,1,.72,6.06,32.14,32.14,0,0,1-.24,6.79,2.49,2.49,0,0,1,.85,2.67,3.31,3.31,0,0,0,.12,2.42,4.77,4.77,0,0,0,.49,4.12,4.77,4.77,0,0,1,.48,4.12c-.65.32-1.09.2-1.33-.36s-.53-.45-.85.36a6.59,6.59,0,0,0-.85-.73,1.09,1.09,0,0,1-.36-1c-.81.49-1.38.41-1.7-.24a1.74,1.74,0,0,0-1.69-1c-.17-.32-.33-.64-.49-1s-.33-.64-.48-1a108.43,108.43,0,0,1-2.67-21.81q-.24-11.15.24-22.78.24-14.31.73-28.6t1.7-28.85a8.5,8.5,0,0,0-4.61.37,6.66,6.66,0,0,1-4.85-.13,17.13,17.13,0,0,0-2.78.61,2.73,2.73,0,0,1-2.31-.36,1.65,1.65,0,0,1-.85.36,1.12,1.12,0,0,0-.84.61,4.35,4.35,0,0,0-3.88-.12,5.28,5.28,0,0,1-3.64.36,3.35,3.35,0,0,1-2.42.73,3.39,3.39,0,0,1-2.43-.73c-2.1.48-4.08.93-5.93,1.33s-3.76.77-5.7,1.09q-.24-.72.36-.6c.41.08.53-.12.37-.61-.33.81-.77,1.26-1.34,1.33s-1.17.17-1.81.25a6.51,6.51,0,0,0-1.58.36c-.4.16-.6.73-.6,1.7-.49.16-.73,0-.73-.37v-1.09c-.16.33-.29.41-.37.25s-.28-.25-.6-.25A4.57,4.57,0,0,1,972,1088a4,4,0,0,0-.61,3.63,5.19,5.19,0,0,0,1-2.18,4.24,4.24,0,0,1,1.22-2.18,13.51,13.51,0,0,0,.12,2.06,3.45,3.45,0,0,1-.12,1.58c-.33,0-.45-.2-.37-.61s0-.6-.36-.6a2.15,2.15,0,0,0-.24,2.18,2.18,2.18,0,0,1-.25,2.18c-.16.16-.24-.16-.24-1a16.84,16.84,0,0,1-1,2.06,4.68,4.68,0,0,0-.48,2.3q0,.49.24,0t.48,0c-.16.49-.32,1-.48,1.58s-.33,1.09-.49,1.57q-.72,0-.72-.48a.73.73,0,0,1,.24-.49c-.81.33-1.25,1.34-1.33,3s-.21,3.12-.37,4.24q-.72.26-.24-.24a.79.79,0,0,0,.24-1,1.92,1.92,0,0,0-1,2.67,2.66,2.66,0,0,1-.24,2.91c-.16,0-.2-.16-.12-.49a.74.74,0,0,0-.12-.73,1.29,1.29,0,0,0-.73,1.58,5.57,5.57,0,0,1,0,2.3q-.48,0-.12-.36c.24-.24.2-.61-.12-1.09a2,2,0,0,0-.61,2.54,2.66,2.66,0,0,1-.36,2.79c-.16,0-.24-.2-.24-.61s-.24-.44-.73-.12a.81.81,0,0,0-.12,1.09,1.12,1.12,0,0,1,.12,1.1c-.48.32-.61.32-.36,0s.2-.73-.12-1.22a2.75,2.75,0,0,0-.61,1.7,3.45,3.45,0,0,0,.12,1.7,14.31,14.31,0,0,1-1,4.36,21.23,21.23,0,0,0-1.21,4.12h-.49c-.32.48-.36.81-.12,1a1.07,1.07,0,0,1,.37,1q-3.4,11.88-7.15,24a211.48,211.48,0,0,0-6.18,25.7,18,18,0,0,1-1.7,1c-.32,1.29-.08,2,.73,2.18-.16.32-.28.4-.37.24a.38.38,0,0,0-.36-.24q-.24.48.12.6c.24.08.29.28.12.61a9.24,9.24,0,0,0-3.39-.49q-.48.24-.36-.24c.08-.32,0-.48-.37-.48s-.48.12-.48.36-.08.36-.24.36a9,9,0,0,1-1.94-2.05,12.75,12.75,0,0,1-1.22-2.31,6,6,0,0,1-.48-2.18,3.36,3.36,0,0,0-.24-1.45,255.35,255.35,0,0,1,6.9-26.79q4-12.48,7.64-26,2.91-9,5.94-18.79t6.42-19.27a3,3,0,0,0-1.7.49c-.48.32-.81.16-1-.49-.32.33-.76.73-1.33,1.22s-1,.32-1.33-.49a2.44,2.44,0,0,1-1.82,1.33c-.73.09-1.57.21-2.54.37,0-.16.12-.28.36-.37s.28-.28.12-.6c-.48.32-1.09.69-1.82,1.09a1.28,1.28,0,0,1-1.82-.36,11.72,11.72,0,0,1-1.21.72,4.32,4.32,0,0,0-1,.73,13.44,13.44,0,0,0-4.72,1,8.08,8.08,0,0,1-4.73.48,6.72,6.72,0,0,1-4.6,1.7,13,13,0,0,0-4.61.73,2,2,0,0,0-1.94-.73,5.44,5.44,0,0,1-2.66-.24,8.07,8.07,0,0,1-1.7-5.09c.48-.32,1-.69,1.57-1.09a11,11,0,0,0,1.34-1.09c.64,0,1,.16,1,.48,2.26-.48,4.89-.93,7.87-1.33a55,55,0,0,0,7.88-1.58,23.25,23.25,0,0,0,6.67-1,22,22,0,0,1,6.18-1,11.91,11.91,0,0,1,4.84-1.57,25.81,25.81,0,0,0,5.58-1.33q4.13-11.64,8.12-23.52t8.48-23.26q4.49-11.4,9.7-22.06a141.21,141.21,0,0,1,11.75-19.87,25.25,25.25,0,0,0,3.15-2.67,7.61,7.61,0,0,1,4.12-1.94,18.53,18.53,0,0,1,3.4.24c.8.17,1.77.33,2.91.49a2.5,2.5,0,0,0,1.33-.37.82.82,0,0,1,1.09.12.56.56,0,0,1-.36.61.56.56,0,0,0-.37.61h1.46c.8,0,1.29.2,1.45.6a1.59,1.59,0,0,0,1.21.85,97.41,97.41,0,0,1,4.37,10.18,33.86,33.86,0,0,0,.6,3.76c.24,1.05.53,2.14.85,3.27q1,16.25.49,33.33t-1.94,31.14c0,.33.16.45.48.37s.49,0,.49.36a52,52,0,0,1,10.54.12q5.69.62,8.36,3.76c-.32,1.29-.16,2.06.49,2.3a1.51,1.51,0,0,1,1,1.58c-.32.64-.68.89-1.08.72a1,1,0,0,0-1.1.24,19.79,19.79,0,0,0-9-1.93h-9.94a21.58,21.58,0,0,0-1.46,8.48q0,5.09-.24,9.21a.21.21,0,0,1-.24.24c-.16,0-.41.17-.73.49a4.3,4.3,0,0,1,.49,2.91,7.87,7.87,0,0,1-1,2.9C1026.65,1102.73,1026.73,1104.11,1025.92,1105.88Zm-100.59-20.11c.17-.32.29-.32.37,0S925.66,1086.09,925.33,1085.77Zm41.69.48a42.08,42.08,0,0,0-2.06,5.58,22.64,22.64,0,0,1-2.3,5.33q-1.21,5.58-2.91,11.27t-3.63,10.79a42.82,42.82,0,0,1-1.7,5,9.64,9.64,0,0,0-.73,5.46,8.47,8.47,0,0,0-1.7,3.51c-.32,1.38-.64,2.79-1,4.24a24.66,24.66,0,0,0-1.21,3.64c-.32,1.29-.64,2.67-1,4.12a4.13,4.13,0,0,0-1.09,2.67,9.69,9.69,0,0,1-.6,2.9,7.75,7.75,0,0,0,2.18-5.09,6.8,6.8,0,0,1,2.18-4.84,1.58,1.58,0,0,1,0-1.7,5.6,5.6,0,0,0,.73-1.7c0-.32-.09-.48-.25-.48a.21.21,0,0,1-.24-.24,15.55,15.55,0,0,0,2.06-4.49,9.76,9.76,0,0,0,.37-5,6.64,6.64,0,0,0,2.06-4.36,6.07,6.07,0,0,1,2.3-4.36l.48-2.43c.16-.8.4-1.21.73-1.21a17.94,17.94,0,0,1-1.45,4.37,11.37,11.37,0,0,0-1,5.09,28.82,28.82,0,0,0-1.7,4.24,23.66,23.66,0,0,0-1,5,31.34,31.34,0,0,0-1.45,3.51,11.32,11.32,0,0,0-.73,3.76,55.27,55.27,0,0,1,2.18-5.58,10,10,0,0,0,.73-5.81,16.57,16.57,0,0,0,2.3-6.06,10.14,10.14,0,0,1,2.79-5.58v-1.45q2.17-5.58,4-11.64t3.75-12.36a5.22,5.22,0,0,0,.37-1,2.2,2.2,0,0,1,.6-1,5.27,5.27,0,0,1,1-2.91,2.41,2.41,0,0,0,.49-2.42c-.81,0-1.3.57-1.46,1.7a3,3,0,0,1-1,2.18,2.23,2.23,0,0,1,.49-1.94,1.35,1.35,0,0,0-.24-1.94,1.72,1.72,0,0,0-.73.61A1.85,1.85,0,0,1,967,1086.25Zm-15.27,1.46c-.32-.33-.48-.28-.48.12S951.43,1088.19,951.75,1087.71Zm7.27-.49q-.48.49,0,.24T959,1087.22Zm1.46,24.24a2.63,2.63,0,0,1,.72-1.94c.33.16.33.48,0,1A7.45,7.45,0,0,1,960.48,1111.46Zm.85,8.72a.81.81,0,0,0,.12-1.21,1.64,1.64,0,0,1-.49,1.21,1.12,1.12,0,0,0-.24,1.22A1.5,1.5,0,0,1,961.33,1120.18Zm.36-11.87q.24-.24.24.24C961.93,1108.88,961.85,1108.79,961.69,1108.31Zm1-3.64a6.43,6.43,0,0,1,.73-1.94c.32.17.32.45,0,.85A6.25,6.25,0,0,0,962.66,1104.67Zm.48,10.91a1.65,1.65,0,0,1,.61-1.09c.4-.4.44-.77.12-1.09a1.65,1.65,0,0,1-.61,1.09C962.86,1114.89,962.82,1115.26,963.14,1115.58Zm.73-13.82q.24-.72.24-.12T963.87,1101.76Zm.24-1.45c.33.33.37.4.12.24S964,1100.31,964.11,1100.31Zm0,0c0-.32.08-.4.25-.24S964.44,1100.31,964.11,1100.31Zm1.22,10.42a1.78,1.78,0,0,0-.25-1.45h-.48c.16.32.12.57-.12.72a.82.82,0,0,0-.37.73Zm-.25-13.57c.16,0,.25,0,.25.12s.07.12.24.12a4.12,4.12,0,0,0-.37,1.09,4.23,4.23,0,0,1-.36,1.09.72.72,0,0,1,0-1.09A1.34,1.34,0,0,0,965.08,1097.16Zm.85,10.42c.4-.32.36-.81-.12-1.45a2.09,2.09,0,0,1-.48,1.33.72.72,0,0,0,0,1.09A1.33,1.33,0,0,1,965.93,1107.58Zm-.85-11.63h.73c0,.64-.24,1-.73,1Zm2.91-6.3a2.54,2.54,0,0,1-.36,2.42,13.83,13.83,0,0,0-1.34,3.15,5.84,5.84,0,0,1,.37-3.15A11.09,11.09,0,0,1,968,1089.65Zm0,10.66a.21.21,0,0,0-.24.24h-.49a5.45,5.45,0,0,1-.24,1.7,5.41,5.41,0,0,0-.24,1.7c.64.16,1,0,1.09-.49s.2-1,.36-1.7q-.72,0-.48-.48c.16-.32.16-.57,0-.73l.24-.24c.32,0,.44.08.37.24s-.05.24.12.24a5.49,5.49,0,0,1,.36-1.93c.24-.65.52-1.38.85-2.19a2.17,2.17,0,0,0-1.21,1.46C968.31,1098.78,968.15,1099.5,968,1100.31Zm1.46,1.45c.64,0,.68.17.12.49S969,1102.41,969.45,1101.76Zm-.25-8h.49c0-.65-.16-1-.49-1Zm0,2.18c0,.48.08.6.25.36S969.53,1096,969.2,1096Zm35.15-94.53v.73c.32,0,.48-.12.48-.37s-.16-.36-.48-.36l1.09-1.09c.4-.4.36-1-.12-1.82-1.78,1.3-2.91,3.39-3.4,6.3-.48.17-.76.41-.84.73a2.21,2.21,0,0,1-.61,1q-2.18,4.37-4.36,8.85t-4.37,8.84q-1.69,4.13-3.27,8.61a90.87,90.87,0,0,1-3.51,8.6,42.41,42.41,0,0,1-2.3,7.15q-1.33,3-2.55,6.18a3.14,3.14,0,0,1-.36,2.43,8.33,8.33,0,0,0-1.09,1.69,1.09,1.09,0,0,0-.13.85.56.56,0,0,1-.12.61c-.32,1-.56,1.82-.72,2.54a3.1,3.1,0,0,1-1.22,1.82,16.64,16.64,0,0,1-2.9,7.51,37.41,37.41,0,0,1,2.3-7q1.32-2.9,2.54-6.3a1,1,0,0,0-.24-.72c-.16-.16-.16-.41,0-.73.32,0,.49,0,.49-.12s.08-.12.24-.12a30.3,30.3,0,0,0,2.18-6.67,15.67,15.67,0,0,1,2.67-6.18,16.59,16.59,0,0,1,1.81-5.57,17,17,0,0,0,1.82-5.82q1.22-2.67,2.55-5.82a27.22,27.22,0,0,0,1.81-6.06q1.21-1.69,2.19-3.39a14.27,14.27,0,0,0,1.45-3.88q3.39-5.82,6.42-11.51t5.94-11.52a2,2,0,0,1-.85.85,1.15,1.15,0,0,0-.6.61.69.69,0,0,1,.24.48.3.3,0,0,1-.49,0c-.16-.16-.4-.08-.72.25a2,2,0,0,1-1,1.81c-.65.41-.81,1.09-.49,2.06l-.48-.48v-.24a12.7,12.7,0,0,1-1.82,3,4.64,4.64,0,0,0-1.09,3,20.89,20.89,0,0,0-5,7.75,42.7,42.7,0,0,1-4,8.24c-.16.33-.16.49,0,.49s.24.16.24.48a31.5,31.5,0,0,0-5,10.06,61.67,61.67,0,0,1-4,10.3,1.62,1.62,0,0,1,0,1.7,3.38,3.38,0,0,0-.49,1.94,65.64,65.64,0,0,0-5.21,12.84,105.92,105.92,0,0,1-4.73,13.09,8.79,8.79,0,0,1-1.45,5.21,7.29,7.29,0,0,0-1.45,4.25,1.47,1.47,0,0,0,2.18-.49,18.21,18.21,0,0,0,1.21-2.42,1,1,0,0,1-.12,1.33c-.41.41-.37.69.12.85a14.69,14.69,0,0,0,2.91-6.91,20.6,20.6,0,0,1,2.66-7.39,143.5,143.5,0,0,1,5.58-16,140.82,140.82,0,0,0,5.57-16c1-.32,1.46-1.37,1.46-3.15a8.53,8.53,0,0,0,2.18-5.09q.72,0,.6-.6c-.08-.4.13-.69.61-.85q.24-.48-.12-.36c-.24.08-.28,0-.12-.37.64-1.29,1.21-2.46,1.7-3.51a19.74,19.74,0,0,1,1.93-3.27,3.14,3.14,0,0,1,.61-2.55,9.54,9.54,0,0,0,1.33-2.3v.48c0,.17.08.24.25.24-.17-.8-.09-1.33.24-1.57a.68.68,0,0,1,1,.12,3,3,0,0,1,.36-2.3,13.69,13.69,0,0,0,1.09-1.82,2.77,2.77,0,0,1,.37-2.06C1003.42,1001.78,1003.86,1001.42,1004.35,1001.42Zm-34.42,92.83c.32.16.61,0,.85-.48s.2-.73-.12-.73a1.37,1.37,0,0,1-.49.6C970,1093.73,969.93,1093.93,969.93,1094.25Zm1-5.09q0-.48-.24-.48v.72A.21.21,0,0,0,970.9,1089.16Zm.48,6.79c.33.16.37.36.13.6S971.22,1096.59,971.38,1096Zm.73-17.21q.24.72.24.12T972.11,1078.74Zm1.46-5.58c.32.33.24.89-.25,1.7a.68.68,0,0,1-.12-1A1.48,1.48,0,0,0,973.57,1073.16Zm1,13.09q1,0,.6.24a.84.84,0,0,0-.36.73q-.25,0-.12-.36A.58.58,0,0,0,974.54,1086.25Zm1.21-7.75a4,4,0,0,1,.12-1q.12-.49.36,0a3.71,3.71,0,0,1,1-2.55c.65-.73.65-1.33,0-1.82a24.07,24.07,0,0,1-1.21,2.55A3.33,3.33,0,0,0,975.75,1078.5Zm.72,2.18H976v.24Q976.47,1080.92,976.47,1080.68Zm28.36-73a1.51,1.51,0,0,1-.36-.6c-.08-.25-.28-.21-.61.12s-.32.48,0,.48a1,1,0,0,1,.73.24c-.33.65-.65,1.34-1,2.06a3.12,3.12,0,0,1-1.45,1.58,3.88,3.88,0,0,1,.12,1.7,1,1,0,0,1-1.09,1c.32,1.13.16,1.93-.49,2.42a2.53,2.53,0,0,0-1,2.18,1.55,1.55,0,0,0-1.21,1c-.16.49-.32,1-.48,1.58a11.36,11.36,0,0,0-.37,1.69,1.82,1.82,0,0,1-.85,1.33.75.75,0,0,0,.49-.72V1023a1.8,1.8,0,0,0-1.21,1.82,1.49,1.49,0,0,1-1.46,1.57,1.41,1.41,0,0,1,0,1.58.74.74,0,0,0,0,1.09,4.09,4.09,0,0,1,.12-1,.57.57,0,0,1,.61-.48,4.42,4.42,0,0,1-.36,1.94,7.75,7.75,0,0,0-.61,1.69.92.92,0,0,1-.12-.85q.12-.6-.36-.36a1.87,1.87,0,0,1-.37,1.33,1.92,1.92,0,0,0-.36,1.34c.16,0,.24-.16.24-.49s.16-.32.49,0c-.49,1.13-1,1.7-1.46,1.7a1.62,1.62,0,0,1,0,1.7,9.51,9.51,0,0,0-.73,1.93q-.48-.24-.72,0a7,7,0,0,0-.12,2.31,2.86,2.86,0,0,1-.61,2.06,2.14,2.14,0,0,1,.24-1,.48.48,0,0,0-.24-.73,5.17,5.17,0,0,0-.61,3.27c.08,1.54-.2,2.3-.84,2.3a3,3,0,0,1,.24-1.09,1,1,0,0,0-.24-1.09,8.81,8.81,0,0,0-1.82,5.21,15.22,15.22,0,0,1-1.34,5.7,4,4,0,0,1,.49-2.06,1.46,1.46,0,0,0,.24-1.33c-.81.64-1.17,1.25-1.09,1.81A4.13,4.13,0,0,1,985,1055c0,.65-.41,1-1.21,1a6.31,6.31,0,0,0-.25,5.09c-.32,0-.4,0-.24.13s.08.12-.24.12-.45,0-.36-.12,0-.13-.13-.13a.78.78,0,0,0-.24,1.22.88.88,0,0,1,0,1.21l-.48-.49a.67.67,0,0,1-.25-.48,2.15,2.15,0,0,1,.25-1.82,2.89,2.89,0,0,0,.48-1.82,3.09,3.09,0,0,0-1.21,1.94,5.39,5.39,0,0,1-.73,1.94c.32.33.61.41.85.24s.36-.08.36.25a53.21,53.21,0,0,1-2.42,7.75,43.27,43.27,0,0,0-2.18,7l.36-.73c.08-.16.37-.24.85-.24a.41.41,0,0,1,.12.49c-.08.16,0,.24.37.24a.64.64,0,0,1,.72-.73h1.46q0-.48.72-.48h1.22a.88.88,0,0,1-.85.48,1.47,1.47,0,0,0-1.09.49,1.87,1.87,0,0,0,1.33,0,5.31,5.31,0,0,1,1.33-.25q.24-.24-.12-.48c-.24-.16-.2-.32.12-.49,1.46-.32,3.23-.72,5.34-1.21a16.39,16.39,0,0,1,5.33-.48.87.87,0,0,1-1.09.6c-.57-.08-.85.13-.85.61a5.57,5.57,0,0,1,2.3,0,2.53,2.53,0,0,0,2.3-1q-.48-.48-.84,0a2.3,2.3,0,0,1-1.34.73c0-.33-.08-.49-.24-.49s-.24-.16-.24-.48q6.06-1.21,12.84-1.94t13.09-1.7a9.94,9.94,0,0,0,.37-3.63,8,8,0,0,1,.36-3.4v6.79h.73q.48-4.6,1-9.33a63.58,63.58,0,0,0,.24-9.58,8.91,8.91,0,0,0,.36-1.69,2.45,2.45,0,0,0-.36-1.7,33.69,33.69,0,0,0,.73-4,8.4,8.4,0,0,0-.49-4,32.76,32.76,0,0,0-.6,7.52,30.9,30.9,0,0,1-.85,8,11.76,11.76,0,0,1,.12-5.09,12.07,12.07,0,0,0,.12-5.09l.48-1a139.93,139.93,0,0,1-.24-14.31q.24-7.5.12-14.9a106.4,106.4,0,0,0-1.09-13.94,26.35,26.35,0,0,0-4.12-11.15,30.16,30.16,0,0,0-6.79,7.88Q1007.51,1002.88,1004.83,1007.72Zm-27.87,62q.24.49.24,0T977,1069.77Zm1.45,5.82a.38.38,0,0,1-.24.36c-.16.08-.16.28,0,.61-.32,0-.45-.16-.36-.49s.2-.48.36-.48Zm0-4.85c.81-.81.81-1.37,0-1.7a1.92,1.92,0,0,0-.36,1C978,1070.5,978.09,1070.74,978.41,1070.74Zm0,4.85a2.23,2.23,0,0,1-.12-1.21,4.11,4.11,0,0,1,.37-1,1.1,1.1,0,0,1,.24,1.21A2.65,2.65,0,0,1,978.41,1075.59Zm.49-10.91q.24.49.24,0T978.9,1064.68Zm.24,2.18a1.86,1.86,0,0,0,1.09-1.33c.24-.73.2-1.25-.12-1.58-.16.49-.33.93-.48,1.34A11,11,0,0,0,979.14,1066.86Zm.73,4.61q.24,0,.12.12a1.4,1.4,0,0,0-.24.36c-.09.16-.17.21-.25.12S979.54,1071.79,979.87,1071.47Zm1-3.88a2.07,2.07,0,0,1-.12,2.06,2.74,2.74,0,0,0-.61,1.57,1.63,1.63,0,0,1,.12-1.81A3.11,3.11,0,0,0,980.84,1067.59Zm.24,12.36q.48.49.48,0T981.08,1080Zm1.21-16.24a.48.48,0,0,1,.24.73,2.17,2.17,0,0,0-.24,1,.8.8,0,0,1-.24-1A1.87,1.87,0,0,0,982.29,1063.71Zm.49-6.54c.64-.16,1-.89,1-2.19-.17,0-.25-.07-.25-.24s-.16-.24-.48-.24a1.61,1.61,0,0,0-.12,1.09A3.77,3.77,0,0,1,982.78,1057.17Zm1,20.11c.48-.32.84-.44,1.09-.36s.44,0,.6-.36h-1.21q0,.48-.24.48A.21.21,0,0,0,983.75,1077.28Zm.72-20.6c.49.16.61.45.37.85s-.45.61-.61.61c-.32-.16-.32-.37,0-.61A.63.63,0,0,0,984.47,1056.68Zm0-9.69.25.24c.48,0,.64-.16.48-.49A1,1,0,0,0,984.47,1047Zm0,4.84c.33.33.49.25.49-.24s-.09-.64-.24-.48-.05.24-.13.24S984.47,1051.51,984.47,1051.83Zm.25,27.63a2.86,2.86,0,0,0,1.33.25c.56,0,.85-.32.85-1a1.14,1.14,0,0,1-1.09.36A1.15,1.15,0,0,0,984.72,1079.46Zm.72-33.69c.16.49.24.53.24.13S985.6,1045.45,985.44,1045.77Zm1,30.54c.16.65.52.85,1.09.61s1-.44,1.34-.61a1.23,1.23,0,0,0-1.22-.24A2.69,2.69,0,0,1,986.41,1076.31Zm.49-35.63v.73c.32.16.48.09.48-.24A.43.43,0,0,0,986.9,1040.68Zm1.21.73c.32.81.2,1.38-.36,1.7s-.53.65.12,1a5.45,5.45,0,0,1,.72-1.7,2,2,0,0,0,.25-1.7c0,.49-.17.73-.49.73Zm1-.73a4.3,4.3,0,0,0,.6-.84c.25-.4.13-.77-.36-1.09a1.84,1.84,0,0,1-.48,1.09C988.51,1040.24,988.59,1040.53,989.08,1040.68Zm-.24,35.15c0,.48.32.69,1,.61s.8-.37.48-.85a1.69,1.69,0,0,0-.73.12A1.67,1.67,0,0,1,988.84,1075.83Zm1.45-43.87c-.16.32-.16.45,0,.36a1.69,1.69,0,0,1,.73-.12v-.48l-.49.24Zm.73,44.35c.64.17,1-.08,1-.72h-.49q.24.48-.24.36T991,1076.31Zm.6-40.47q-.12-.24.12-.24Q991.74,1036.08,991.62,1035.84Zm1.82-6.79a1.82,1.82,0,0,1,.49-1.09c.32-.4.15-.61-.49-.61a2.72,2.72,0,0,1-.24.85C993,1028.61,993.12,1028.89,993.44,1029.05Zm2.18-1.82q-.24.86-.24-.36Q995.86,1026.39,995.62,1027.23Zm1-5.21a1.17,1.17,0,0,1,.24-.6c.16-.25.08-.45-.24-.61a1.93,1.93,0,0,1-.24.73Q996.11,1022,996.59,1022Zm.73,53.57.73-.37c.16-.08.4,0,.72.37-.16-.33,0-.57.37-.73s.52-.32.36-.48a1.65,1.65,0,0,1-1.58.24C997.2,1074.46,997,1074.78,997.32,1075.59Zm1.7-55v.24c-.17,0-.25.08-.25.24C998.77,1020.57,998.85,1020.41,999,1020.57Zm1,53.81a1.84,1.84,0,0,0,1.81.48,3.15,3.15,0,0,0,1.58-.73A18.17,18.17,0,0,0,1000,1074.38Zm3.39,2.66q.48.49.48,0T1003.38,1077Zm2.18-2.79c.48.09.73,0,.73-.12a1.67,1.67,0,0,0-1.21-.48.64.64,0,0,0-.73.73A2,2,0,0,1,1005.56,1074.25Zm-1.21,4.25h.48V1078h-.48Zm1.21-80.23c.32,0,.52-.2.61-.61s0-.6-.13-.6a.69.69,0,0,1-.24.48A1,1,0,0,0,1005.56,998.27Zm1-2.18c.32.16.52.16.61,0a1.92,1.92,0,0,1,.36-.49C1006.85,995.6,1006.53,995.76,1006.53,996.09Zm.48,78h2.19a1.55,1.55,0,0,0,1.45-1,6,6,0,0,1-1.94.25A1.91,1.91,0,0,0,1007,1074.13Zm.49,2.91a.82.82,0,0,1,.61-.24c.24,0,.36-.16.36-.49q-.5,0-.36-.36c.07-.24-.13-.28-.61-.12a1,1,0,0,1-.24.73Q1007,1076.8,1007.5,1077Zm0-82.41a.29.29,0,0,0,.48,0q.24-.24-.24-.48A.69.69,0,0,1,1007.5,994.63Zm1.45-1.94a.82.82,0,0,0-.72.37q-.26.36.24.6A1.38,1.38,0,0,0,1009,992.69Zm0,83.62v.73l.73-.36c.16-.08.4,0,.73.36a.55.55,0,0,1,.36-.6.56.56,0,0,0,.36-.61,2.2,2.2,0,0,0-1,.24A2.69,2.69,0,0,1,1009,1076.31Zm2.43-2.9c1.13,0,2.3,0,3.51-.13a5.26,5.26,0,0,0,3-1.09,1.58,1.58,0,0,0-1.45.25.77.77,0,0,1-1.21-.25c-.17.65-.77.81-1.82.49S1011.7,1072.6,1011.38,1073.41Zm.72,4.36h.73v-.49h-.73Zm3.16-.73a1.18,1.18,0,0,1-1.34.12c-.4-.24-.77,0-1.09.61a1.46,1.46,0,0,1,1.46-.24c.64.16,1,0,1-.49.64-.32,1-.4,1.21-.24a2.52,2.52,0,0,0,1.45.24q-.24-.48.12-.6a.56.56,0,0,0,.37-.61,3.91,3.91,0,0,0-1.7-.12A1.83,1.83,0,0,0,1015.26,1077Zm2.78,78.41a72,72,0,0,0-.36-9.09c.32-3.39.61-6.91.85-10.54a53.19,53.19,0,0,0-.37-10.79q-.48,10.18-.72,20.48a121.24,121.24,0,0,0,1,19.27A74.91,74.91,0,0,1,1018,1155.45Zm-.12,12.48a1.67,1.67,0,0,1,.12-.72c.08-.17,0-.41-.36-.73A2.52,2.52,0,0,0,1017.92,1167.93Zm1.46,10.18q0,1.94.72,2.19a2.73,2.73,0,0,0-.24-1.22c-.16-.32-.33-.64-.48-1a19.24,19.24,0,0,0-.49-4.6,18.92,18.92,0,0,1-.48-4.61,2.84,2.84,0,0,0-.49,2.31c.16.88.32,1.73.49,2.54s.28,1.58.36,2.3A5.85,5.85,0,0,0,1019.38,1178.11Zm-1-53.8a28.45,28.45,0,0,0,.72-6.79,38.74,38.74,0,0,0-.72-7.52c0,1.94-.09,4.25-.25,6.91A36.35,36.35,0,0,0,1018.41,1124.31Zm1.69-44.85q0,3.88-.24,7.4c-.16,2.34-.36,4.69-.61,7s-.44,4.81-.6,7.39a70.73,70.73,0,0,0,0,8.24,30.2,30.2,0,0,0,.73-7.15,30.38,30.38,0,0,1,1-7.88,10.52,10.52,0,0,1,0-3.27,10.3,10.3,0,0,0-.25-3.76,4.55,4.55,0,0,1,.49-1.09,2,2,0,0,0,.24-1.09,5.93,5.93,0,0,1,0-3.39,6.11,6.11,0,0,0,0-3.39C1020.83,1079.14,1020.59,1079.46,1020.1,1079.46Zm-.72-6.54c-.17,0-.25.08-.25.24A.22.22,0,0,0,1019.38,1072.92Zm3.63,13.57q-.48,2.91-.85,5.82a20.28,20.28,0,0,0,.12,5.82q-.24.48-.48.48c-.16,0-.24.17-.24.49v8.48a3.56,3.56,0,0,0-.49,2.55,4.56,4.56,0,0,1-.24,2.54,1.16,1.16,0,0,0,.36.85,1.45,1.45,0,0,1,.37,1.09,35.25,35.25,0,0,0-.37,6.67,20.31,20.31,0,0,1-.84,6.66,2,2,0,0,1,.48,1.46,13.23,13.23,0,0,0-.36,4.12,11.77,11.77,0,0,1-.37,3.87,15.11,15.11,0,0,1,.37,7.76,14,14,0,0,0,.36,7.51,22.12,22.12,0,0,0,.36-6.78,15.74,15.74,0,0,1,.61-6.3.77.77,0,0,0-.49-.73.77.77,0,0,1-.48-.73,3,3,0,0,0,.73-2.18c0-.32.12-.49.36-.49s.28-.24.12-.72a17.86,17.86,0,0,1-.24-5.09,19.88,19.88,0,0,0-.24-5.33,62.24,62.24,0,0,1,.48-7.88,21.26,21.26,0,0,0-.24-7.15,11.76,11.76,0,0,0,.36-5,16.49,16.49,0,0,1,.12-5.21,4.88,4.88,0,0,0,.73-4.85c.49.33.73.16.73-.48a.65.65,0,0,1-.73-.73v-6.55c.16,0,.24-.07.24-.24s-.08-.48-.24-.48Zm-2.42,74.17c0-.48.12-.77.36-.85s.2-.28-.12-.6c-.33,0-.53.2-.61.6A.69.69,0,0,0,1020.59,1160.66Zm.24,5.33a3.08,3.08,0,0,1,0-2.42c.32-.81.32-1.37,0-1.7a2.79,2.79,0,0,0-.48,1.94A3.89,3.89,0,0,0,1020.83,1166Zm0,2.07a3.79,3.79,0,0,0-.24-1.58,5.57,5.57,0,0,0-.24,1.82,3.19,3.19,0,0,0,.48,1.82Zm0-11.76a2.49,2.49,0,0,0,.61-1.45,15.91,15.91,0,0,0,.12-1.94h-.73a3.2,3.2,0,0,0-.36,1.94A4.74,4.74,0,0,0,1020.83,1156.3Zm0-24c.16,0,.24.17.24.49a.21.21,0,0,1-.24.24v-.73Zm.73-74.16v5.57a3.84,3.84,0,0,1-.61-2.67A9.51,9.51,0,0,1,1021.56,1058.14Zm0-1.94a1.11,1.11,0,0,1,.12.85,2.4,2.4,0,0,0-.12.84.47.47,0,0,1-.25-.72A2.22,2.22,0,0,0,1021.56,1056.2Zm2.42,25a.78.78,0,0,0-.24-1.21,3.29,3.29,0,0,0-.73,1.7c-.16.81.16,1,1,.72C1023.66,1082.05,1023.66,1081.65,1024,1081.16Zm-1,3.88c.32,0,.49-.12.49-.36s.16-.45.48-.61a1.14,1.14,0,0,0-1-1.21Zm.49,84.35c.32,0,.44.24.36.73a2,2,0,0,0,.12,1.21c-.48-.17-.65-.45-.48-.85A1.29,1.29,0,0,0,1023.5,1169.39Zm.48-98.65c.32,0,.49,0,.49-.12s.08-.12.24-.12c.32-1,.08-1.46-.73-1.46a.81.81,0,0,1,0,.85A.81.81,0,0,0,1024,1070.74Zm.24-2.42c.16-.81.28-1.54.37-2.19a2.37,2.37,0,0,0-.37-1.69,12.58,12.58,0,0,1-.24,2.06A2.07,2.07,0,0,0,1024.22,1068.32Zm.49,63.5q.48,0,.48.12c0,.08.16.2.49.36a9.45,9.45,0,0,0-.73,3.15c-.16,0-.24,0-.24-.12s-.16-.12-.49-.12a4.92,4.92,0,0,0,.25-1.57A7.6,7.6,0,0,1,1024.71,1131.82Zm-.49,30.78v.24h.49v-.48h-.24A.22.22,0,0,1,1024.22,1162.6Zm.49-100.1a1.12,1.12,0,0,0,.6-.85c.08-.4-.12-.61-.6-.61a.6.6,0,0,0-.37.73A1.52,1.52,0,0,0,1024.71,1062.5Zm0,64a1.84,1.84,0,0,1,1,1.81v2.55c-1.13,0-1.54-.52-1.21-1.58A5.73,5.73,0,0,0,1024.71,1126.49Zm-.24-2.18a1.09,1.09,0,0,0,.84.12.56.56,0,0,1,.61.12c0,.48-.12.77-.36.85a1.48,1.48,0,0,0-.61.36c-.33,0-.45-.2-.36-.61A.94.94,0,0,0,1024.47,1124.31Zm1-80.84a2.4,2.4,0,0,0,.49-1.57,8.82,8.82,0,0,1-.73-5.46,10,10,0,0,0-.24-5q-.24,3.65-.36,6.79a53,53,0,0,0,.12,6.3A6.74,6.74,0,0,1,1025.43,1043.47Zm.25,77.2a.69.69,0,0,0-.25.48.22.22,0,0,0,.25.25,1.07,1.07,0,0,0,.12.48,1.11,1.11,0,0,1,.12.49.55.55,0,0,1-.36.6c-.25.09-.21.37.12.85a1.52,1.52,0,0,1-1-.73.79.79,0,0,1,.24-1,11.82,11.82,0,0,1-.36-4,22.68,22.68,0,0,1,.6-4.24,5,5,0,0,1-.36-1.57c-.08-.73.2-1,.85-.85a17.85,17.85,0,0,1,.24,2.91,3,3,0,0,1-.73,2.18,3.2,3.2,0,0,1,.73,1.94A11.31,11.31,0,0,1,1025.68,1120.67Zm-1-11.39c.32.32.6.4.85.24s.44-.08.6.24a1,1,0,0,1-.24.73,1,1,0,0,0-.24.73c-.49,0-.69-.25-.61-.73A1.31,1.31,0,0,0,1024.71,1109.28Zm.48-22.79a14.49,14.49,0,0,1-.12,5.58,9.91,9.91,0,0,0-.12,4.6,39.09,39.09,0,0,0,1-7,43.6,43.6,0,0,1,1-7.28c0-.15-.24-.24-.73-.24a4.88,4.88,0,0,0-.48,2.18A4.82,4.82,0,0,1,1025.19,1086.49Zm0-32.72a.88.88,0,0,1,.12-1c.25-.32.12-.48-.36-.48a1,1,0,0,1,0,1Q1024.71,1053.77,1025.19,1053.77Zm1.21,26.66c.33-.48.25-1.12-.24-1.93a7.79,7.79,0,0,0-.48,1.81c-.17.89-.09,1.5.24,1.82A3,3,0,0,1,1026.4,1080.43Zm-.48,40.6c0,.25-.08.37-.24.37v-.73Q1025.92,1120.67,1025.92,1121Zm0-15.15c.16,0,.24,0,.24.13s-.08.12-.24.12Zm1.21-35.38a2.57,2.57,0,0,0,0-1.58c-.16-.73-.24-1-.24-.85a3.28,3.28,0,0,1-.36,1.46C1026.28,1070,1026.48,1070.34,1027.13,1070.5Zm0-4.37a17.28,17.28,0,0,1,.12-2.3,14.93,14.93,0,0,0,.12-2.06.21.21,0,0,0-.24-.24,8.06,8.06,0,0,1-.36,2.54A2.15,2.15,0,0,0,1027.13,1066.13Zm1-11.63v-.85c0-.24-.24-.44-.73-.6a3.65,3.65,0,0,0,.13,1A.56.56,0,0,0,1028.1,1054.5Zm0,3.64c0-.81-.24-1.22-.73-1.22a1,1,0,0,1,.37,1C1027.65,1058.22,1027.78,1058.3,1028.1,1058.14Zm-.36,8.72c.24-.16.12-.24-.37-.24v1A.83.83,0,0,1,1027.74,1066.86Zm.36-10.66a4.11,4.11,0,0,1,.24-1.22,1.11,1.11,0,0,0-.24-1.21,1.75,1.75,0,0,1-.24,1.58C1027.53,1055.75,1027.62,1056,1028.1,1056.2Zm0-16a2.69,2.69,0,0,1,.24-1.21.8.8,0,0,0-.24-1,4,4,0,0,1-.24,1.21C1027.7,1039.71,1027.78,1040,1028.1,1040.2Zm0,4.12q0,.24-.24.12T1028.1,1044.32Zm0,5.33q0,.49-.24.24C1027.7,1049.74,1027.78,1049.65,1028.1,1049.65Zm0-6.06q.24.26.24-.24t-.24-.48l-.24.24Q1027.86,1043.59,1028.1,1043.59Zm0-2.91c0,1.14,0,1.42.12.85S1028.26,1040.68,1028.1,1040.68Zm.49,34.91q.24.72.24.12C1028.83,1075.31,1028.75,1075.26,1028.59,1075.59Zm.72,0c.16.48.25.52.25.12S1029.47,1075.26,1029.31,1075.59Z"/><path class="cls-1" d="M1121.66,1080a34.53,34.53,0,0,1-6.67,8.6,33.2,33.2,0,0,0-6.66,8.85,25.58,25.58,0,0,0-3.52,3.76,25.48,25.48,0,0,1-3.51,3.75,4.22,4.22,0,0,0,2.3-1.45c.73-.81,1.41-1.61,2.06-2.42v.24c0,.16.24.24.73.24a2.5,2.5,0,0,1,.72-.85c.33-.24.25-.6-.24-1.09.49-.16.77-.2.85-.12a1,1,0,0,0,.61.12c.15-.32.12-.44-.12-.36s-.37,0-.37-.36a1.34,1.34,0,0,0,1.33-1,2,2,0,0,1,1.58-1.22,1,1,0,0,0-.24-.72c-.17-.16-.09-.4.24-.73q.48,0,.12.36c-.24.25-.28.37-.12.37a2.24,2.24,0,0,0,1.45-1.22c.16-.48.41-1.12.73-1.93.16.64.37.76.61.36a2.1,2.1,0,0,1,.85-.85.56.56,0,0,0-.37-.6c-.24-.08-.2-.28.12-.61.16,0,.25.48.25,1.45q-2,2.67-4,5.09t-4,5.09v.25a2.14,2.14,0,0,0-1.09.72,9.37,9.37,0,0,1-.85,1,1.33,1.33,0,0,0,1-.6,11.7,11.7,0,0,1,1-1.09v-.25a4.33,4.33,0,0,0,2.66-2.66,5.24,5.24,0,0,1,2.67-2.91,2.58,2.58,0,0,0,.61-.85,2.1,2.1,0,0,1,.84-.85,9.18,9.18,0,0,1-2.54,4,14,14,0,0,0-2.79,3.27,3.5,3.5,0,0,0,2.43-1.94,7.08,7.08,0,0,1,2.66-2.66,6.59,6.59,0,0,1,.49-.85,1.49,1.49,0,0,0,.24-.85,5.54,5.54,0,0,0,2.06-2.3,3.37,3.37,0,0,1,2.3-1.82,18.92,18.92,0,0,0-2.91,4,11.64,11.64,0,0,1-3.63,4,2.37,2.37,0,0,1-1.58,2.91,3,3,0,0,0-2.06,2.66l-1.09.37a5.27,5.27,0,0,0-1.09.6c0,.17.12.25.36.25s.37.08.37.24a4.08,4.08,0,0,1-1,.24,9.37,9.37,0,0,1-3.4,4.36,16.91,16.91,0,0,0-4.12,4.12,3.42,3.42,0,0,0-1.93.49,2.55,2.55,0,0,1-1.94.24,1.81,1.81,0,0,1-1.82,1.21,4.94,4.94,0,0,0-2.55.73,10.69,10.69,0,0,0-2.78-.48,3.27,3.27,0,0,1-2.31-1.46q-.24-.24-.36,0c-.08.16-.28.16-.61,0a5.55,5.55,0,0,1-1.94-1.94q-.48.26-.72,0a1,1,0,0,0-.73-.24,28.86,28.86,0,0,1-3.76-6.79,41.11,41.11,0,0,1-2.54-8.24,8.29,8.29,0,0,0-.24-1.57,3.33,3.33,0,0,0-.73-1.58,15.72,15.72,0,0,1,.36-2.79c.25-1.21.45-1.57.61-1.09a18.17,18.17,0,0,1-.49-4.48,36.3,36.3,0,0,0-.36-5.09,43.33,43.33,0,0,0-1-4.85,8.07,8.07,0,0,0-2.06-3.75,6.07,6.07,0,0,1-.73,1.21q-.48,0-.24-.12c.16-.08.24-.28.24-.61-.32,0-.72.4-1.21,1.21a4.75,4.75,0,0,0-.73,2.43h-.24a37.35,37.35,0,0,1-3.51,4.72,17,17,0,0,0-3,5.21c-.81,0-1.3.49-1.46,1.46q0,.24-.36.12a.56.56,0,0,0-.61.12c0,.33.08.45.25.36s.16,0,0,.37a2,2,0,0,0-1.09,1.81,2,2,0,0,1-1.34,1.82c-.48,1.62-1.37,2.51-2.66,2.67.64.32.72.81.24,1.45a2.1,2.1,0,0,1-1.7,1,4.19,4.19,0,0,1-1.21,3.28,13.68,13.68,0,0,0-2.42,3,4,4,0,0,0-1,.13,4.09,4.09,0,0,1-1,.12l-.85-.85a3.36,3.36,0,0,0-.85-.61v-.48a.24.24,0,0,0,0,.48c0,.17-.08.24-.24.24a2.53,2.53,0,0,1-1-1.09c-.32-.56-.89-.68-1.7-.36a9.38,9.38,0,0,1-1.45-5.33,35.53,35.53,0,0,1,.6-6.42c.41-2.19.85-4.33,1.34-6.43s.89-4,1.21-5.57c-.49-1.13-.32-1.9.48-2.31a1.93,1.93,0,0,0,1.22-1.81c.81,0,1.33-.16,1.57-.49a2.32,2.32,0,0,1,1.33-.72,3.52,3.52,0,0,1,2.19,1.09,4.82,4.82,0,0,0,1.93,1.33,21.33,21.33,0,0,0-1.09,5.82,55.43,55.43,0,0,1-.6,6.06q2.17-2.67,4.12-5.58c1.29-1.94,2.62-3.79,4-5.57a32.52,32.52,0,0,1,4.6-4.85,22.89,22.89,0,0,1,5.94-3.64q2.67.74,5.21,1.34a8.63,8.63,0,0,1,4.49,2.78,9.15,9.15,0,0,1,.72,2.06,14.18,14.18,0,0,0,.73,2.31,1.86,1.86,0,0,1,.12,1.09,2.66,2.66,0,0,0-.12.84,61.53,61.53,0,0,1,.85,8.37q.12,4,.12,8c0,2.66.08,5.25.24,7.75a32.45,32.45,0,0,0,1.46,7.64,1.54,1.54,0,0,1,.72,1,3,3,0,0,0,.73,1.21q4.13.48,6.3-1.21a21.92,21.92,0,0,0,3.88-3.88h.24a59.91,59.91,0,0,0,9.82-10.91,65.88,65.88,0,0,1,9.57-10.91,40,40,0,0,1,4.12-5.57c1.46-1.61,2.91-3.39,4.37-5.33,1,.81,1.12,1.53.48,2.18A6.35,6.35,0,0,0,1121.66,1080Zm-47.75,13.82q.24.48.24,0T1073.91,1093.77Zm2.42-1q0,1.21.24.36C1076.73,1092.6,1076.65,1092.47,1076.33,1092.8Zm.49,5.33c.16-.32.16-.57,0-.73s-.09-.4.24-.73c-.49,0-.69.25-.61.73S1076.65,1098.13,1076.82,1098.13Zm0,1.45h.24a.21.21,0,0,0-.24-.24Zm1,3.88c0-1.94-.25-3-.73-3.15v1.45A1.88,1.88,0,0,0,1077.79,1103.46Zm.24.73a.64.64,0,0,0-.73-.73A.64.64,0,0,0,1078,1104.19Zm0,4.12a5.31,5.31,0,0,0-.73-3.64,5.73,5.73,0,0,1,.49,1.94A7.2,7.2,0,0,0,1078,1108.31Zm.24,0q-.48,1,.24.6T1078.27,1108.31Zm.49,1.45q.48.49.36,0T1078.76,1109.76Zm12.36,8.73q0-.48.24,0Q1091.12,1119,1091.12,1118.49Zm13.81-12.61a1.08,1.08,0,0,0-.85.49c-.24.33-.2.48.13.48a.55.55,0,0,1,.36-.6c.24-.08.36-.2.36-.37h0Zm-.72-1c-.17.33-.21.49-.13.49S1104.21,1105.24,1104.21,1104.91Zm2.18-.24c-.65,0-1,.24-1,.73q.24.24.36-.12a1.13,1.13,0,0,1,.61-.61q.48,0,.48-.72Q1106.39,1104,1106.39,1104.67Zm2.66-1c0-.16.08-.24.25-.24a.73.73,0,0,0-.49-.24Q1108.81,1103.7,1109.05,1103.7Zm4.12-11.15c0-.48.13-.6.37-.36S1113.66,1092.55,1113.17,1092.55Zm0,2.91c0-.8.57-1.37,1.7-1.69a3.59,3.59,0,0,0-.73,1A1.52,1.52,0,0,1,1113.17,1095.46Zm2.43-5.57v.24q.24,0,.24-.12t-.24-.12a8.71,8.71,0,0,1,1.69-2.18,1.94,1.94,0,0,1-.24,1.21c.32,0,.49,0,.49-.12s.16-.2.48-.37l-.73-.72v-.49h.73v.49c.32.16.52,0,.61-.37s0-.44-.37-.12H1118a5.13,5.13,0,0,1,1.46-2.18q.48,0,.24.36a1.14,1.14,0,0,0-.24.61.78.78,0,0,1,.72-.49q.48,0,0-1a1,1,0,0,0,.73-.25,2.59,2.59,0,0,1,1-.48,29.86,29.86,0,0,1-7,7.75,1.93,1.93,0,0,0,.24-.84A1.29,1.29,0,0,1,1115.6,1089.89Zm.48,1.69v.73q-.24-.48-.12-.48C1116,1091.83,1116.08,1091.75,1116.08,1091.58Zm1.21-1.45a.56.56,0,0,1,.13.61c-.09.24-.21.28-.37.12-.32-.33-.36-.45-.12-.37S1117.29,1090.46,1117.29,1090.13Zm.73-.24q0,.24-.24.12T1118,1089.89Zm0,0c.32-.81.57-1.21.73-1.21A1.12,1.12,0,0,1,1118,1089.89Zm.73-3.64q-.24.74.24.24T1118.75,1086.25Zm0,2.43c.32-.49.48-.53.48-.13S1119.07,1089,1118.75,1088.68Zm.73-1c.16-.33.24-.28.24.12S1119.64,1088.19,1119.48,1087.71Zm.72,1.69c0,.33-.24.49-.72.49a1,1,0,0,1,.24-.73Q1120,1088.92,1120.2,1089.4Zm-.24-4.6-.24.24q0-.48.12-.48c.08,0,.12-.08.12-.25l.24.25Zm-.24,5.57q.24-.48.24,0T1119.72,1090.37Zm.24-2.91q-.24-.24.24-.24Q1120.2,1087.71,1120,1087.46Zm.24-.24c-.16-.32-.08-.52.25-.6s.48-.2.48-.37C1120.93,1086.9,1120.69,1087.22,1120.2,1087.22Zm3.4-8.72a2.82,2.82,0,0,1-.73,2.78c-.81,1.06-1.54,2.06-2.18,3a2.52,2.52,0,0,1,1-2.78A6.58,6.58,0,0,0,1123.6,1078.5Zm-1.94,1.45q.24,0,.12.24C1121.69,1080.36,1121.66,1080.28,1121.66,1080Zm.72,3.88c.33.16.37.32.13.48a.82.82,0,0,0-.37.73c-.32-.32-.32-.52,0-.61S1122.54,1084.15,1122.38,1083.83Z"/><path class="cls-1" d="M1139.84,1080.68c-.82,1.45-1.66,2.83-2.55,4.12a47.11,47.11,0,0,0-2.54,4.12c-.17.32-.33.44-.49.36s-.33,0-.48.37c.15.16.2.28.12.36s-.05.2.12.36a39.29,39.29,0,0,0-3.52,5.21,38.9,38.9,0,0,1-3.51,5.21,37.58,37.58,0,0,1-4.24,4.49,14.43,14.43,0,0,1-5.7,3,6,6,0,0,1-1.82-.61,2,2,0,0,0-1.57-.12,9.62,9.62,0,0,0-2.43-1.82,13.6,13.6,0,0,1-2.42-1.57,14.49,14.49,0,0,0-1-1.7v-.73q-.24-6.54,2.42-10.78t5.34-7.88a40.25,40.25,0,0,1,6.3-7.51,30.35,30.35,0,0,0,4.12-3.4,9.66,9.66,0,0,1,4.85.25,22.09,22.09,0,0,1,3.88,1.69,38,38,0,0,0,3.51-4.6,16.5,16.5,0,0,1,3.76-4.12,37.59,37.59,0,0,0,4.12.24,16.16,16.16,0,0,1,3.88.48,5.75,5.75,0,0,1,1.21,2.19c-.49,3.55-.85,6.87-1.09,9.93a47.84,47.84,0,0,1-1.58,9,2.68,2.68,0,0,0,.12.85,2,2,0,0,1,.12.61,21.5,21.5,0,0,0-.72,6.9,24.46,24.46,0,0,1-.25,5.94c.33,1.3.69,2.59,1.09,3.88s.85,2.59,1.34,3.88a2,2,0,0,1-2.31-.61,6.7,6.7,0,0,0-2.3-1.57,11.6,11.6,0,0,1-3.39-5.58,26.64,26.64,0,0,1-1-7.39c0-2.67.12-5.41.36-8.24s.45-5.53.61-8.12c-.33,0-.61.4-.85,1.21A2.54,2.54,0,0,1,1139.84,1080.68ZM1113.17,1096h-.24q-.48.24-.12.36T1113.17,1096Zm0,1.45c.17.33.25.33.25,0S1113.34,1097.08,1113.17,1097.4Zm1-1.45q-.48.24-.12.24c.24,0,.29-.08.12-.24.33-.32.41-.53.24-.61S1114.14,1095.46,1114.14,1096Zm.24-.73c.49,0,.73-.32.73-1C1114.63,1094.25,1114.38,1094.58,1114.38,1095.22Zm.49-1.21c.33.16.53.08.61-.24s0-.33-.37,0h-.24Zm2.42,1.94a4.88,4.88,0,0,1-.72,2.91,6,6,0,0,0-1,2.9,4,4,0,0,0,2.66-1.69,5.55,5.55,0,0,1,1.94-1.94,53.74,53.74,0,0,0,6.06-8.48q2.67-4.61,5.58-8.73a1.66,1.66,0,0,1,.84-1.33c.57-.4.61-.77.13-1.09a20.36,20.36,0,0,0-9,7.63Q1120.69,1091.1,1117.29,1096Zm-.84-11.15c-.08-.16-.13-.08-.13.24C1116.49,1085,1116.53,1085,1116.45,1084.8Zm-.13,6.3c0,.65.13.81.37.48S1116.81,1091.1,1116.32,1091.1Zm1.7-1.45c.16-.49.16-.81,0-1a.69.69,0,0,1-.24.48.71.71,0,0,0-.24.49Zm0-7.52q-.48,0-.12.12c.24.09.28,0,.12-.12h0Zm.61-.48c.08.16.12.08.12-.25.32-.15.4-.24.24-.24a.22.22,0,0,0-.24.24C1118.58,1081.4,1118.54,1081.49,1118.63,1081.65Zm10.78,9a.71.71,0,0,0-.48.25C1129.25,1090.86,1129.41,1090.78,1129.41,1090.61Zm0,5.58q-.48.49.12,0T1129.41,1096.19Zm1-1c.16-.64-.08-1-.73-1,.33.33.37.48.13.48s-.37.17-.37.49C1129.9,1095.06,1130.22,1095.06,1130.38,1095.22Zm-.73,0c.33.48.49.53.49.12S1130,1094.9,1129.65,1095.22Zm3.28-10.79c-.25.41-.21.61.12.61a1.15,1.15,0,0,1,.6-.61c.25-.08.28-.28.13-.6a.71.71,0,0,0,.48-.24c.16-.16.08-.25-.24-.25a.74.74,0,0,1-.24.49A1,1,0,0,0,1132.93,1084.43Zm-.12,5.94q.72-.24.36-.48T1132.81,1090.37Zm1.21-1.69h.48c.32-.33.28-.49-.12-.49S1133.85,1088.35,1134,1088.68Zm.48-6.31a1.36,1.36,0,0,0,1-.48c.32-.32.32-.57,0-.73A4.81,4.81,0,0,1,1134.5,1082.37Zm.25,4.85c.15.33.24.33.24,0S1134.9,1086.9,1134.75,1087.22Zm1.93-6.91a3,3,0,0,0,.25-1.09,2.07,2.07,0,0,0-1.22,1.7A.93.93,0,0,0,1136.68,1080.31Zm.25.61a.21.21,0,0,0,.24.24q0-.48-.24-.48Zm2.18-5.33q-.49,0-.24.24c.15.16.24.08.24-.24h.24v-.73C1139.19,1074.86,1139.11,1075.1,1139.11,1075.59Zm.24-1.21v.24h.49v-.49h-.25C1139.59,1074.3,1139.51,1074.38,1139.35,1074.38Zm.49-.25a8.52,8.52,0,0,0,1.81-1.94c.57-.8.77-1.37.61-1.69a4.63,4.63,0,0,1-1.21,1.82A4.39,4.39,0,0,0,1139.84,1074.13Zm.72,1.46v0Zm1.21,1.45q0-.48-.24-.48Q1141.53,1077.28,1141.77,1077Zm.25-3.63q.24.48.24,0T1142,1073.41Zm1.45,26.17c.32,0,.44.21.36.61s.13.52.61.36a4,4,0,0,0-.36-1.57c-.25-.57,0-1,.6-1.34a1.1,1.1,0,0,1-.48-1.33c.16-.56-.09-.93-.73-1.09a4,4,0,0,0,.12,2.18A3,3,0,0,1,1143.47,1099.58Zm.24-4.6a.65.65,0,0,1,.73-.73c-.48-.64-.57-1-.24-1.21s.16-.57-.49-1.21c.49.32.73.36.73.12s.08-.37.24-.37c0-1.77,0-3.31.12-4.6s.12-2.83.12-4.61c-.32-.15-.32,0,0,.49s.25.81-.24,1c-.32,0-.4-.28-.24-.85s.08-.76-.24-.61a54.86,54.86,0,0,0-.73,6.18A27.92,27.92,0,0,0,1143.71,1095Zm.73-7.52q-.5,0,0-.24Q1144.92,1087.46,1144.44,1087.46Zm0,3.28c-.16.56-.24.44-.24-.37C1144.52,1090.05,1144.6,1090.17,1144.44,1090.74Zm-.24,10.3q0,.72.12.12C1144.4,1100.76,1144.36,1100.71,1144.2,1101Zm.24-18.91a7.57,7.57,0,0,0,.85-2.54,2.91,2.91,0,0,0-.61-2.79v2.54A14.43,14.43,0,0,1,1144.44,1082.13Zm1.21,18.91a65.17,65.17,0,0,1,.49-7.76,22.9,22.9,0,0,0-.25-7.51,59.32,59.32,0,0,1-.48,7.27A26.67,26.67,0,0,0,1145.65,1101Zm0-16.48c.32-.16.44-.13.37.12a.51.51,0,0,0,.12.6,4.37,4.37,0,0,0,.85-2.18,8.57,8.57,0,0,0-.13-2.42,4.92,4.92,0,0,0-.72,2.54C1146.14,1084.11,1146,1084.56,1145.65,1084.56Z"/><path class="cls-1" d="M1202.37,1040.2c-.17,0-.25-.32-.25-1-.64,1.78-1.21,3.44-1.69,5a14,14,0,0,0-.73,4.24q-.48,0-.24-.36a1.51,1.51,0,0,0,.24-.85c-.48,0-.73.32-.73,1a1.11,1.11,0,0,1-.72,1.21,1.23,1.23,0,0,1,.24-.61q.24-.36-.24-.36c-.33,1-.73,2-1.22,3.15a.81.81,0,0,0,.85,0c.25-.16.53-.08.85.24.16.33-.08.49-.73.49-.32.48-.28.77.13.85s.44.28.12.6l-.49-.48-.73.48v-1.45c-.16.48-.28.89-.36,1.21a7.26,7.26,0,0,1-.61,1.45,1.7,1.7,0,0,0,.73-.6c.16-.24.57-.2,1.21.12a1.54,1.54,0,0,1-1,1.45,1.76,1.76,0,0,0-1,1.7c.33.33.57.49.73.49s.16.24,0,.72h-.48c-.16,0-.25-.16-.25-.48v1.21c0,.33,0,.28.13-.12s.28-.61.6-.61c0,1.13-.32,1.86-1,2.18s-.81,1.06-.48,2.19a1.19,1.19,0,0,0-.61,1c-.08.49,0,.65.12.49.33.48.25.77-.24.85s-.73.28-.73.6q-.48.49-.48-.72a7.63,7.63,0,0,0-1,2.91,12.63,12.63,0,0,1-.73,2.9c0,.33.08.37.25.13s.32-.29.48-.13a17.07,17.07,0,0,1-1.7,6.06h-.24q-.24-.24,0-.36c.16-.08.24-.28.24-.61-.64-.32-.93-.24-.85.25a1.32,1.32,0,0,1-.36,1.21c.32.32.52.32.61,0s.2-.49.36-.49c.64.65.73,1.26.24,1.82a9.29,9.29,0,0,0-1.21,1.82.38.38,0,0,0,.24.36c.16.09.08.29-.24.61a3.67,3.67,0,0,1-.48,1.45,2.63,2.63,0,0,0-.25,1.22,1.65,1.65,0,0,1-.48,1.21,67,67,0,0,1-2.42,6.9,21.77,21.77,0,0,0-1.7,6.43c-.33,0-.49.48-.49,1.45a6,6,0,0,0-1.09,1.46c-.24.48-.52,1-.85,1.69.33.17.57.12.73-.12a1.49,1.49,0,0,0,.24-.85,1.6,1.6,0,0,1-.12,1.34,4.07,4.07,0,0,1-.85,1.33,9.57,9.57,0,0,1-2.66,6.67,20.07,20.07,0,0,0-4.12,5.69,8.64,8.64,0,0,0-3.76,1.82c-1,.89-2.63,1-4.72.36a.5.5,0,0,0-.37.12.45.45,0,0,1-.36.12h-.24a8.76,8.76,0,0,1-6.43-4.12,19,19,0,0,1-2.54-8,46.72,46.72,0,0,1,0-9.46c.32-3.23.65-6.22,1-9,.81-2.27,1.57-4.45,2.3-6.55a26.83,26.83,0,0,1,3-6.06c.32.16.52.16.61,0s.28-.24.6-.24a18.21,18.21,0,0,1,5-4.61,29.88,29.88,0,0,1,6.67-3.15,13.59,13.59,0,0,0,1.57-.12c.73-.08,1.17-.28,1.33-.6a10.72,10.72,0,0,1,7,2.18c-.32.32-.36.6-.12.85a1.16,1.16,0,0,1,.37.84q5.56-18.9,11.14-37.44t12.12-36.48c.33-.16.45-.12.37.12s0,.36.36.36A3.24,3.24,0,0,1,1211,998a4.26,4.26,0,0,0,1.33-1c0,.64.08.81.25.48a.77.77,0,0,1,.72-.48v1c.49.16.69,0,.61-.37s0-.52.36-.36c0,1,.4,1.37,1.22,1.21a.94.94,0,0,0-.25,1.09,10.33,10.33,0,0,0,.49,1.09,76.45,76.45,0,0,1-1.58,13.45,74.67,74.67,0,0,0-1.57,13.21.54.54,0,0,0-.37.12.45.45,0,0,1-.36.13,69,69,0,0,1-.49,8.24c-.32,2.75-.72,5.57-1.21,8.48-.48,3.39-.81,6.83-1,10.3s-.4,7.07-.72,10.79q-.5,4.85-1,10.18c-.33,3.55-.49,7.11-.49,10.66-.32,5.18-.48,10.1-.48,14.79s-.17,9.86-.49,15.51a8.13,8.13,0,0,1,.37,3.15,10.14,10.14,0,0,1-.61,2.91c.64.32.73.89.24,1.7a1.49,1.49,0,0,1,.49,1.69,2.45,2.45,0,0,0,.24,1.94q.24.49-.24.36c-.33-.08-.41,0-.24.37q-.26.48.24.36c.32-.08.48,0,.48.37-.32,1.45-.57,2.62-.72,3.51a6.19,6.19,0,0,0,.72,3.51,1.62,1.62,0,0,0-.36.61c-.08.24-.21.36-.36.36a11.1,11.1,0,0,1,.36,1.46.78.78,0,0,0,.85.73,3.8,3.8,0,0,0-.12,2.54,5.52,5.52,0,0,1,.12,2.54c-.33,0-.45-.12-.37-.36s0-.36-.36-.36c-.16,1,.16,1.29,1,1a31.52,31.52,0,0,0,1.09,8.36,38.48,38.48,0,0,1,1.33,7.39,4.26,4.26,0,0,1-1.33.24,1.49,1.49,0,0,0-1.09.49,2.05,2.05,0,0,1-1.45-.73h-.73a1,1,0,0,1-.85-.48,8.31,8.31,0,0,0-.85-1,4.55,4.55,0,0,1-3.15-2.18,11.57,11.57,0,0,1-1.33-4,42.78,42.78,0,0,1-.49-4.85,28.26,28.26,0,0,0-.6-4.73q-1-14.29-.61-27.39t.61-26.66q.72-13.08,1.69-26.05a214.77,214.77,0,0,1,3.4-25.33c0-.32-.12-.37-.37-.12s-.36.2-.36-.12a.56.56,0,0,1,.36-.61.56.56,0,0,0,.37-.61v.49a4,4,0,0,1,.24-1.21c.16-.49.08-.81-.24-1-.33,1.29-.57,2.26-.73,2.91A10.22,10.22,0,0,0,1202.37,1040.2Zm-25.94,33.21a7.16,7.16,0,0,0-3.75,3.63,54.58,54.58,0,0,0-2.06,5.33,41.9,41.9,0,0,0-4.61,10.18,94.42,94.42,0,0,0-2.67,11.15v6.06a4,4,0,0,1,.61,1.82,21.17,21.17,0,0,1,.12,2.3,10.35,10.35,0,0,1,.85,1,4.4,4.4,0,0,1,.61,1.46,21.24,21.24,0,0,0,5.81-5.58,63.24,63.24,0,0,0,4.37-7,2.83,2.83,0,0,1,.72-3,3.17,3.17,0,0,0,.73-3.27,18.35,18.35,0,0,0,3.15-7.75,2.46,2.46,0,0,0,1-1.58,2.57,2.57,0,0,0,0-1.58,50.45,50.45,0,0,0,2.3-6.18,54.24,54.24,0,0,0,1.58-6.18,2.58,2.58,0,0,1-1.34,1.82,3.52,3.52,0,0,0-1.57,1.82A18.37,18.37,0,0,0,1176.43,1073.41Zm0,38.78a11.66,11.66,0,0,1,1.82-1.94c.89-.81,1.17-1.54.85-2.18a3.92,3.92,0,0,1-1.7,1.93A2,2,0,0,0,1176.43,1112.19Zm4.24-5.09c.25-.65.12-1-.36-1a.47.47,0,0,1-.24.72.79.79,0,0,0-.49.73C1180.07,1107.91,1180.43,1107.74,1180.67,1107.1Zm-.36,1.21a.78.78,0,0,0,.73-.49c.16-.32.08-.48-.25-.48A1.4,1.4,0,0,1,1180.31,1108.31Zm1-2.91q.24.49.24,0T1181.28,1105.4Zm0,1.45q.24.5.24,0T1181.28,1106.85Zm.24-5.33c.49,0,.73-.16.73-.48C1181.76,1101,1181.52,1101.2,1181.52,1101.52Zm2.18-1v-1a1.48,1.48,0,0,1,.37,1.34c-.09.56-.21.76-.37.6Zm.49-1.45q.48,0,.12.24T1184.19,1099.1Zm.24-1c.32-.32.49-.28.49.12S1184.75,1098.61,1184.43,1098.13Zm.73,0a1.61,1.61,0,0,1,.24,1.45,9,9,0,0,1-.48,1.21,1,1,0,0,1-.13-1.21A3.12,3.12,0,0,0,1185.16,1098.13Zm0-4.36a3.46,3.46,0,0,1,.48-1.94,3.63,3.63,0,0,0-.72,1A.77.77,0,0,0,1185.16,1093.77Zm-.24,3.15h.24v.48h-.24Zm.84-1.22a1.07,1.07,0,0,1-.6.73c-.17-.16-.12-.36.12-.6s.2-.45-.12-.61Q1185.88,1095.22,1185.76,1095.7Zm.13-4.24c0-.4-.09-.36-.25.12C1185.8,1091.91,1185.89,1091.87,1185.89,1091.46Zm.72-2.78h-.24a2,2,0,0,1-.12.6,2.72,2.72,0,0,0-.12.85q-.5,0-.12.24c.24.16.28.09.12-.24.32-.16.48-.64.48-1.45.32-.65.69-1.34,1.09-2.06a3.33,3.33,0,0,0,.37-2.31A17,17,0,0,0,1186.61,1088.68Zm-.72,8.48q.48-.48.24.36C1186,1098.09,1185.89,1098,1185.89,1097.16Zm.72-2.67a.81.81,0,0,1,.12,1.09,2.21,2.21,0,0,0-.36,1.09.72.72,0,0,1,0-1.09A1,1,0,0,0,1186.61,1094.49Zm.49-.72.24.24a.21.21,0,0,1-.24.24c-.17,0-.25-.08-.25-.24Zm1.69-5.34a2.1,2.1,0,0,1-.12,2.06,11.92,11.92,0,0,0-.85,2.55,2.34,2.34,0,0,1,.25-2.3A4.14,4.14,0,0,0,1188.79,1088.43Zm-.72.25v1c-.17,0-.25-.16-.25-.49A.67.67,0,0,1,1188.07,1088.68Zm0-4.85c.32,0,.52-.28.6-.85s0-.93-.36-1.09a2.72,2.72,0,0,1-.12.85A3.36,3.36,0,0,0,1188.07,1083.83Zm1-2.67c.15,0,.28-.2.36-.6s0-.61-.36-.61c0,.48-.09.77-.25.85S1188.71,1081,1189,1081.16Zm0,6.3c.15-.48.24-.48.24,0S1189.19,1088,1189,1087.46Zm.48-8.24a.69.69,0,0,1-.24.49c.16.16.24,0,.24-.49.32,0,.49-.12.49-.36s-.17-.36-.49-.36Zm0,6.06c.49,0,.61.09.36.24a.84.84,0,0,0-.36.73Zm1-3.88-.24.49v.24a.21.21,0,0,1-.24-.24.73.73,0,0,1,.24-.49Zm0-.72c0-.32,0-.25-.12.24S1190.33,1081.32,1190.49,1080.68Zm0,2.42q.48,0,.36.36a1.48,1.48,0,0,1-.36.61.3.3,0,0,1,0-.48A.31.31,0,0,0,1190.49,1083.1Zm.85-8.36a1.48,1.48,0,0,0-.36-1.33,1.51,1.51,0,0,1-.37,1.09,1,1,0,0,0-.12,1.09C1191,1075.59,1191.26,1075.31,1191.34,1074.74Zm-.36,4q.48,0,.24.48a1.76,1.76,0,0,0-.24.73c-.33-.16-.45-.32-.37-.49S1190.81,1079.06,1191,1078.74Zm.6-5.94a1,1,0,0,0,.12-.61c-.16,0-.32.21-.48.61s-.09.61.24.61A1,1,0,0,1,1191.58,1072.8Zm-.12,8.36q-.49,0-.24.12C1191.38,1081.37,1191.46,1081.32,1191.46,1081.16Zm.24-1.21c0,.65-.08.89-.24.73S1191.38,1080.28,1191.7,1080Zm0,0a7.65,7.65,0,0,1,.12-1.21,1.19,1.19,0,0,1,.61-1A3,3,0,0,1,1191.7,1080Zm.49-4.6c0-.49-.09-.49-.24,0S1191.86,1075.83,1192.19,1075.35Zm1.21-8.73c.32.16.36.69.12,1.57a4.21,4.21,0,0,1-.85,1.82c-.16.33,0,.49.36.49s.53.16.37.48c-.33-.16-.53-.2-.61-.12s-.28,0-.6-.12a14.24,14.24,0,0,1,.6-2.18A18.08,18.08,0,0,0,1193.4,1066.62Zm-1,10.18q.48,0,.36.36a1.55,1.55,0,0,1-.36.61c-.16,0-.24-.16-.24-.49A.69.69,0,0,1,1192.43,1076.8Zm0-2.67q.24-.48.24,0T1192.43,1074.13Zm.48.49c.49.16.61.4.37.73a1.55,1.55,0,0,0-.37,1q-.48-.48-.12-.84A.68.68,0,0,0,1192.91,1074.62Zm.73-9.21a2.94,2.94,0,0,1,.36-1.22q.38-.72-.36-1a1,1,0,0,1-.24,1.09C1193.07,1064.72,1193.16,1065.09,1193.64,1065.41Zm.49,3.88a.79.79,0,0,1-.73.48,1,1,0,0,1,.24-.73,1,1,0,0,0,.24-.72A.79.79,0,0,1,1194.13,1069.29Zm-.25,3.39q0,.48-.24,0Q1193.88,1072.2,1193.88,1072.68Zm0-5.82h.73v.73h-.73Zm.73-5.82c.16-.32.4-.76.73-1.33s.32-.85,0-.85C1194.85,1059.19,1194.61,1059.92,1194.61,1061Zm.49,3.15c-.17-.15-.09-.24.24-.24C1195.34,1064.28,1195.25,1064.36,1195.1,1064.19Zm.48-6a1.06,1.06,0,0,0,.24-1.46.81.81,0,0,1-.36.73C1195.22,1057.57,1195.25,1057.81,1195.58,1058.14Zm-.24,5.81v-.72q.48-.49.36,0A1.52,1.52,0,0,1,1195.34,1064Zm.72-7.75a1,1,0,0,1,.25-.73c.16-.16.08-.32-.25-.49a1.49,1.49,0,0,1-.24.85C1195.66,1056.08,1195.74,1056.2,1196.06,1056.2Zm.73,1.21h.49v.24h-.49Zm.24-1.46c.49,0,.69.13.61.37s-.2.36-.36.36S1197,1056.44,1197,1056Zm1.22-6.54c.32.48.4.85.24,1.09a1.51,1.51,0,0,0-.24.85c-.65-.32-.81-.73-.49-1.21A.78.78,0,0,1,1198.25,1049.41Zm0-2.18c.32,0,.64-.24,1-.73a.88.88,0,0,0,0-1.21,4.47,4.47,0,0,0-.37,1A2.15,2.15,0,0,1,1198.25,1047.23Zm2.18,20.36q-.73,9.21-1,18.06t-.73,18q-.48,11.64-.24,23.27a163.45,163.45,0,0,0,1.94,22.3,167.17,167.17,0,0,1-1.21-19.27v-17.33a28.75,28.75,0,0,0,.24-3.51v-3.28a5.2,5.2,0,0,0-.12-1.21,3.53,3.53,0,0,1-.12-1,2.2,2.2,0,0,1,.24-1,2.14,2.14,0,0,0,.24-1,12.89,12.89,0,0,0-.12-1.81,13,13,0,0,1-.12-1.82q.48-8,.6-15.64a148.4,148.4,0,0,1,1.1-15.63h-.25Zm-1.7-16.48q.24-.49.24,0T1198.73,1051.11Zm.49-1.7q.48,0,.12.36C1199.09,1050,1199.05,1049.89,1199.22,1049.41Zm.84-5.94q.12-.6-.36-.6.24.48,0,.6c-.16.08-.24.29-.24.61C1199.78,1044.08,1200,1043.88,1200.06,1043.47Zm-.12-1.33a3.55,3.55,0,0,0,1.22-1.7,3.17,3.17,0,0,0,0-2.42,4.36,4.36,0,0,1-.49,1.94A8.34,8.34,0,0,0,1199.94,1042.14Zm.49,50.17q-.5,14.31-.49,28.12.24,6.3.25,13.69a89.84,89.84,0,0,0,1,13.7q.22,1.7.36,3.39a5.1,5.1,0,0,0,1.09,2.91,67.7,67.7,0,0,1-1.21-10.42c-.17-3.72-.24-7.28-.24-10.67,0-.64-.13-1-.37-1.21s-.2-.49.12-1q0-11.38.12-21t.13-21.2a14.94,14.94,0,0,0,.84-5.7,48.75,48.75,0,0,1,.12-5.94,25.13,25.13,0,0,1,.13-2.54,24.46,24.46,0,0,1,.36-2.55,1,1,0,0,0-.24-.73q-.25-.24,0-.72a8.14,8.14,0,0,0,.48-3.88,31.45,31.45,0,0,1-.24-3.88.21.21,0,0,0-.24-.24v.73Q1200.92,1078,1200.43,1092.31Zm4.36-62.77c-.33.16-.4.36-.24.6a1.19,1.19,0,0,1,.24.61q-1.21,8.49-2.42,17.69a175.76,175.76,0,0,0-1.46,18.42,7.48,7.48,0,0,0,.49-5.82,2.4,2.4,0,0,0,.6-1.45,2.65,2.65,0,0,0-.12-1.45,12.32,12.32,0,0,0,1-6.06,12.32,12.32,0,0,1,1-6.06,46.82,46.82,0,0,1,.73-8.24,72.86,72.86,0,0,0,1-8c-.49,0-.73-.08-.73-.24l.24-.25c.16,0,.25,0,.25-.12s.08-.12.24-.12a1.61,1.61,0,0,1,.12-1.33,1.14,1.14,0,0,0-.12-1.34c-.16.49-.33,1-.49,1.46A5.41,5.41,0,0,0,1204.79,1029.54Zm-2.42,10.66a2.15,2.15,0,0,1-.25,1,.75.75,0,0,1-.72.48.76.76,0,0,0,.48-.72A.78.78,0,0,1,1202.37,1040.2Zm.36-5.45c.4-.57.36-1-.12-1.34a4.46,4.46,0,0,1-.49,1.58c-.32.73-.32,1.17,0,1.33A2.79,2.79,0,0,1,1202.73,1034.75Zm.61,86.89a4.26,4.26,0,0,0-.12-.73c-.09-.32-.29-.4-.61-.24C1202.45,1121.15,1202.69,1121.48,1203.34,1121.64Zm1.21-75.14c-.49,2.43-.93,5.13-1.33,8.12a58.84,58.84,0,0,0-.61,7.88,1.49,1.49,0,0,0,.36-1.33,1.26,1.26,0,0,1,.85-1.34,8.86,8.86,0,0,1,.12-5.94,11.62,11.62,0,0,0,.61-5.93c.16-1,.32-2.34.48-4.12a12.37,12.37,0,0,0-.24-4.37,17.48,17.48,0,0,1-.36,3.64A6.84,6.84,0,0,0,1204.55,1046.5Zm-1.94,67.38c.32.17.48,0,.48-.36s-.16-.44-.48-.12Zm.73,3.15a3.63,3.63,0,0,1,.12-1,2.23,2.23,0,0,0-.12-1.21,1.64,1.64,0,0,0-.49,1.21A1,1,0,0,0,1203.34,1117Zm-.25,20c.16-.56.25-.69.25-.36C1203,1137.48,1202.93,1137.6,1203.09,1137Zm.25-36.72Zm.6-69.08a.74.74,0,0,0-.12-.73c-.16.33-.28.49-.36.49s-.12.16-.12.48Q1203.82,1031.73,1203.94,1031.23Zm-.6,55.75q0,.24.48.24a1.57,1.57,0,0,1,0-1.21c-.32,0-.45.08-.36.24s0,.24-.12.24Zm0,4.85h.24v-.25h-.24Zm0,18.17q.24.49.12,0C1203.37,1109.68,1203.34,1109.68,1203.34,1110Zm.24-76.1c-.16.65-.21.69-.12.12S1203.58,1033.41,1203.58,1033.9Zm0,55.75h.24v-.73h-.24Zm0,38.29c.48.33.73.28.73-.12s-.17-.61-.49-.61C1203.82,1127.7,1203.74,1127.94,1203.58,1127.94Zm.73-4.36c.32,0,.4-.16.24-.49-.65-.16-.93.09-.85.73a13,13,0,0,1,.12,1.45c.16-.8.37-1.12.61-1a6.4,6.4,0,0,1,.85.72,2,2,0,0,0,.12-1.21,6.62,6.62,0,0,1-.12-1.21h-.49c0,1.13-.33,1.7-1,1.7C1203.82,1123.82,1204,1123.58,1204.31,1123.58Zm-.49-12.85c0-.64.24-1,.73-1a13.93,13.93,0,0,1-.12,1.7c-.09.65.2,1,.85,1a3.46,3.46,0,0,0,.12-1.46,7.36,7.36,0,0,1-.12-1.69c-.65.16-.94-.08-.85-.73s-.12-1-.61-1.21a3.51,3.51,0,0,1,0,1.82A2.62,2.62,0,0,0,1203.82,1110.73Zm0-81.68c.32.33.57.28.73-.12s.16-.61,0-.61c0,.17-.12.29-.36.37S1203.82,1028.89,1203.82,1029.05Zm0,50.41c.32.17.49,0,.49-.36s-.17-.6-.49-.6Zm.12,15.27c.08-.15,0-.24-.12-.24Q1203.82,1095,1203.94,1094.73Zm-.12,3.4a.78.78,0,0,0,.49.73.77.77,0,0,1,.48.72c-.65,0-1,.53-1,1.58a5.56,5.56,0,0,0,.24,2.06,2.09,2.09,0,0,0,.73-1.46c-.81-.48-.81-1.09,0-1.81s.81-1.34,0-1.82Zm0,7.75c.49.17.73-.08.73-.72s-.24-.81-.73-.49l.24.49Zm0,1h.24v-.72h-.24Zm0,9c.32.33.49.33.49,0S1204.14,1115.5,1203.82,1115.82Zm.24-41.2h.73v-.49h-.73Zm0,21.81c.33.33.49.29.49-.12S1204.39,1096,1204.06,1096.43Zm0,17a2.91,2.91,0,0,0,.61,1.94,1.12,1.12,0,0,1,.12,1.45,1.08,1.08,0,0,0,.36-1.45,1.11,1.11,0,0,1,.37-1.46c-.33,0-.45-.08-.37-.24s0-.24-.36-.24C1204.79,1113.72,1204.55,1113.72,1204.06,1113.4Zm0,19.87c.33.49.49.49.49,0S1204.39,1132.79,1204.06,1133.27Zm0,5.58c.33.48.49.52.49.12S1204.39,1138.53,1204.06,1138.85Zm.73-48.48a2,2,0,0,1,.12-.6c.08-.25,0-.53-.36-.85a2.31,2.31,0,0,1-.24,1C1204.14,1090.21,1204.31,1090.37,1204.79,1090.37Zm0-6.06a.43.43,0,0,0,.49.49q.48,0,.24.48a.56.56,0,0,1-.37.61q-.36.12-.36-.12c-.48.81-.6,1.25-.36,1.33a2.39,2.39,0,0,1,.85.61c-.49,0-.73.08-.73.24a.42.42,0,0,1,.48.48,1.36,1.36,0,0,0,.49,1q0-1.7.12-3.27a12.66,12.66,0,0,0-.12-3c-.33.33-.45.53-.37.61S1205.11,1084,1204.79,1084.31Zm-.24-8.72q.24.48.24-.12T1204.55,1075.59Zm.24,20.6c.32-.16.4-.36.24-.61s-.32-.36-.48-.36a1,1,0,0,0,.12.48A1.14,1.14,0,0,1,1204.79,1096.19Zm.73,11.88a7.59,7.59,0,0,1-.37-.85.56.56,0,0,0-.6-.37C1204.87,1107.66,1205.19,1108.07,1205.52,1108.07Zm-.37,12.48c-.08-.4-.28-.61-.6-.61a2.2,2.2,0,0,1,.24,1,.77.77,0,0,0,.49.73A5.73,5.73,0,0,0,1205.15,1120.55Zm-.36,13.94q0,.24-.12.24t-.12.24v.24c.64.33.85.69.6,1.09s-.44.77-.6,1.09c.48,0,.81.33,1,1a5.3,5.3,0,0,1,.12-2.54c.24-.73.2-1.17-.12-1.33h-.73Zm-.24,6.54q.48-.48.48-.24c0,.16.16.32.49.48q.24-.24,0-.36c-.16-.08-.16-.28,0-.61a1.4,1.4,0,0,1-1-.24Zm.73-8v-1.21c0-.49-.17-.73-.49-.73a2,2,0,0,0-.12,1.21C1204.75,1132.79,1205,1133,1205.28,1133Zm.48-74.17v-.24a.69.69,0,0,0,.24-.48q-.48.24-.6.12a1,1,0,0,0-.61-.12C1204.79,1058.62,1205.11,1058.86,1205.76,1058.86Zm-1,11.88v0Zm0,25.93c.32.33.49.33.49,0S1205.11,1096.35,1204.79,1096.67Zm.73,7c.32-.32.08-.48-.73-.48C1204.79,1104,1205,1104.19,1205.52,1103.7Zm0,1q.24,0,0-.24c-.16-.16-.41-.08-.73.24Zm-.73,24.24c.64.16.89-.08.73-.73s-.41-1-.73-1Zm0,1c.32.16.57.12.73-.12s.08-.44-.24-.61c.15.33.12.45-.13.37S1204.79,1129.56,1204.79,1129.88Zm.73-91.86a1.42,1.42,0,0,0,.24-1c0-.49-.08-.73-.24-.73a2.28,2.28,0,0,1-.24,1A.47.47,0,0,0,1205.52,1038Zm0,35.39c.32,0,.48-.25.48-.73s-.16-.73-.48-.73a3.13,3.13,0,0,1-.24.85C1205.11,1073.2,1205.19,1073.41,1205.52,1073.41Zm0-34.66c0-.33-.09-.33-.24,0C1205.43,1039.07,1205.52,1039.07,1205.52,1038.75Zm-.24,24c.15.49.24.53.24.12S1205.43,1062.42,1205.28,1062.74Zm0,1.21h.24v-.24h-.24Zm0,61.81c.32,0,.48-.2.48-.61s-.16-.44-.48-.12Zm0,13.82c.64,0,1-.25,1-.73h-.73C1205.36,1138.85,1205.28,1139.09,1205.28,1139.58Zm.72,4.36c.32-.32.32-.61,0-.85a2.24,2.24,0,0,1-.72-.85,2.6,2.6,0,0,1,.24,1.09C1205.52,1143.74,1205.68,1143.94,1206,1143.94Zm-.48-90.17.24-.24a.21.21,0,0,0-.24-.24Zm0,17.45q.48.26.48-.24t-.48-.24Zm.24,9.46V1080h-.24v.73Zm.12,64.11c.08-.41,0-.45-.36-.13v.73Q1205.76,1145.39,1205.88,1144.79Zm-.12-80.11q.24,0,.24.12c0,.08.08.12.25.12,0-.48-.17-.64-.49-.48Zm.49,62c-.33,0-.49.08-.49.24C1206.08,1127,1206.25,1126.89,1206.25,1126.73Zm.24,20.6v-.73c-.33,0-.57.25-.73.73Zm-.49-92.83.25.24a1,1,0,0,1,.12-.48C1206.45,1054.1,1206.32,1054.18,1206,1054.5Zm0,34.42c.16.48.25.52.25.12S1206.16,1088.6,1206,1088.92Zm.25-25.69c-.17.64-.21.72-.13.24S1206.25,1062.9,1206.25,1063.23Zm.72,89.92a1.65,1.65,0,0,0-.72-1.46c-.17.17-.17.45,0,.85S1206.65,1153.15,1207,1153.15Zm-.72-103.74c.15.48.24.53.24.12S1206.4,1049.09,1206.25,1049.41Zm.84,9.57a.81.81,0,0,0-.12-1.09c-.32,0-.44.21-.36.61a1.15,1.15,0,0,1-.36,1.09A1,1,0,0,0,1207.09,1059Zm-.84,14.18v1C1206.4,1073.65,1206.4,1073.33,1206.25,1073.16Zm.24-25.2q.48.48.36-.12T1206.49,1048Zm.48,6.78c.32.49.49.49.49,0S1207.29,1054.26,1207,1054.74Zm.73-18.18h-.24v.49C1207.62,1037.05,1207.7,1036.89,1207.7,1036.56Zm-.24,12.61q.24.48.24-.12C1207.7,1048.65,1207.62,1048.68,1207.46,1049.17Zm.24-11.88h.73v-.24h-.73Zm0,2.91.36-.73q.12-.24-.36-.24Zm1,1.21a.69.69,0,0,0,.24-.48.43.43,0,0,0-.48-.49,1.76,1.76,0,0,1-.13.61C1208.22,1041.29,1208.34,1041.41,1208.67,1041.41Z"/><path class="cls-1" d="M1221.75,1102.73c-.32-.48-.64-.56-1-.24a.77.77,0,0,1-1,.24,1.85,1.85,0,0,0-1-1.09l-1.69-.85a5.13,5.13,0,0,1-1.7-2.78,15.67,15.67,0,0,1-.48-4,24.5,24.5,0,0,1,.36-4.24,17.22,17.22,0,0,1,1.09-3.76,53.46,53.46,0,0,1,5.7-11.39,82.9,82.9,0,0,1,6.91-9.21,6,6,0,0,0,2.66-1.46,6.4,6.4,0,0,1,2.18-1.45c1.78-.32,3.43-.61,5-.85a15,15,0,0,1,5,.12c1.78,1,3.51,2,5.21,3a13.31,13.31,0,0,1,4.24,4.24.5.5,0,0,0,.12.37q.12.12-.12.84a4.71,4.71,0,0,1,.85,1.22c.24.48.44.89.61,1.21a2,2,0,0,1,.48,1.45,2,2,0,0,0,.49,1.46,17,17,0,0,1-.37,6.9c-.57,1.86-1.25,3.93-2.06,6.19a17.61,17.61,0,0,0-.72,3,3.91,3.91,0,0,1-1.46,2.54,1.49,1.49,0,0,1-.36,1.09c-.24.24-.21.69.12,1.33a3.5,3.5,0,0,0-1.58,2.31,9.22,9.22,0,0,1-1.09,2.78,57.19,57.19,0,0,1-8,10.91,10.67,10.67,0,0,0-1.69,1.58,11.14,11.14,0,0,1-1.7,1.57c-1,.49-2.06,1-3.27,1.46a7.55,7.55,0,0,1-3.76.48,3,3,0,0,1-1.69-.48,2,2,0,0,0-1.7-.25c-.65-.64-1.25-1.21-1.82-1.69s-1.17-1-1.82-1.46Q1220.55,1109.29,1221.75,1102.73Zm15.52.49c1.12-2.1,2.42-4.4,3.87-6.91a53.28,53.28,0,0,0,3.76-7.88,34.17,34.17,0,0,0,2.06-8.72,21.65,21.65,0,0,0-1.21-9.46c-.65-.8-1.25-1.61-1.82-2.42s-1.17-1.61-1.82-2.42h-.48a27.77,27.77,0,0,0-12.24,10.06,128.56,128.56,0,0,0-8.36,14.42,1.08,1.08,0,0,0-.13.85,2.65,2.65,0,0,1,.13.84,4.81,4.81,0,0,0-.85,3.76,23.31,23.31,0,0,1,.36,4,.82.82,0,0,1,.73.36c.16.25.4.21.73-.12a69.16,69.16,0,0,1,4.72-9.93,15.15,15.15,0,0,1,7.64-6.79,11.62,11.62,0,0,0,1.69.6,4.29,4.29,0,0,1,1.7.85,37.14,37.14,0,0,1-4.6,3.4,6.73,6.73,0,0,0-3.16,4.84c0-.16.08-.24.25-.24a.21.21,0,0,1,.24.24c.32,1.3.16,2.15-.49,2.55a3.8,3.8,0,0,0-1.45,2.3,1,1,0,0,0,.49,1,1,1,0,0,1,.48,1,7.15,7.15,0,0,0-2.67,5.33,21.88,21.88,0,0,0,.49,6.55,8.41,8.41,0,0,0,5.69-3.4A21.22,21.22,0,0,1,1237.27,1103.22Zm-11.4-31c-.32.33-.32.37,0,.13S1226.2,1072,1225.87,1072.19Zm12.12-6.06a.64.64,0,0,0,.73-.72A.64.64,0,0,0,1238,1066.13Zm.73,40a1,1,0,0,0,.61-.12q.12-.12.84.12a6.82,6.82,0,0,1,1.94-2.79,2.55,2.55,0,0,0,1-2.79,5.07,5.07,0,0,1-2.3,2.55A4.24,4.24,0,0,0,1238.72,1106.13Zm8-19.64c-.33.65-.41.73-.24.25S1246.72,1086.17,1246.72,1086.49Zm1.45-5.33a2.86,2.86,0,0,0-1.09,2.18q-.12,1.46-.36,2.91a16.64,16.64,0,0,0,1-2.66,9,9,0,0,1,1-2.43Zm3.88,8.49a1.55,1.55,0,0,0,.36-.61q.12-.36-.36-.36.24,0-.12.36C1251.69,1089.28,1251.72,1089.49,1252.05,1089.65Z"/><path class="cls-1" d="M1308.28,1084.56q-2,3.39-4,6.66a35.32,35.32,0,0,0-3.51,7.64q.24.48.6.12c.24-.25.37-.2.37.12.32.32.28.52-.13.6s-.44.29-.12.61H1301c-.16,0-.21-.12-.12-.36s0-.37-.37-.37a6.1,6.1,0,0,0-1.45,2.55c-.33,1-.65,2.22-1,3.51h-.24c-.16,0-.25,0-.25-.12s-.08-.12-.24-.12a12.64,12.64,0,0,1-1.33,4.12,20.54,20.54,0,0,0-1.58,4.12q-3.39,7.27-6.54,15.76t-5.82,16.72a.85.85,0,0,0,1-1c0-.64.24-1,.73-1-.33.48-.45.85-.36,1.09a1.13,1.13,0,0,1-.13.85c.16.33.29.33.37,0s.2-.32.36,0a2.9,2.9,0,0,1-.6,1.33,2.3,2.3,0,0,0-.37,1.58c-.81,0-1.21.24-1.21.73q.24.48.24.12c0-.25.16-.37.49-.37a1.1,1.1,0,0,1-.12,1.09c-.25.41-.45.77-.61,1.09,0-.32-.33-.48-1-.48,0,.32.32.48,1,.48v.25a23.92,23.92,0,0,1-1.45,2.54,6.37,6.37,0,0,0-1,2.55,16,16,0,0,0-3.15,3.63,9.9,9.9,0,0,1-3.16,3.15c-1.77,0-3,.32-3.63,1-.33,0-.49-.24-.49-.72v-.49a7.37,7.37,0,0,1-2.06-1.21,4.85,4.85,0,0,0-2.54-1,4.36,4.36,0,0,1-.85-1.33,1.32,1.32,0,0,0-1.33-.85,51.7,51.7,0,0,1-3.4-13.09q-1-7.27-1.45-14.3c0-1.29,0-2.55.12-3.76a10.12,10.12,0,0,1,.61-3,8.79,8.79,0,0,1-.25-3.51,13.92,13.92,0,0,0,0-3.76,31.9,31.9,0,0,0,.37-6.42,11.54,11.54,0,0,1,.85-5.46v-2.3a3.27,3.27,0,0,1,.48-1.82,112.72,112.72,0,0,1,.85-14.3q.85-6.54,1.33-14c-.16-.33-.08-.45.25-.37s.48,0,.48-.36c-.48-.32-.61-.89-.36-1.7a4.12,4.12,0,0,1,.84-1.69c.17-.33.09-.41-.24-.25s-.4.09-.24-.24a1.18,1.18,0,0,1,.61-1.09c.4-.24.44-.61.12-1.09,0-.49,0-.64-.12-.49s-.28.17-.61,0a1.43,1.43,0,0,0,.36-1.33c-.08-.56.21-.85.85-.85a1.86,1.86,0,0,0-.48-1.09q-.48-.6.72-.6c0-.49-.15-.73-.48-.73,0-.32.08-.52.24-.61a3.17,3.17,0,0,0,.73-.6q-.24-.24-.36-.12c-.08.08-.2,0-.37-.12a9,9,0,0,0,.49-2.91,7.21,7.21,0,0,1,.48-2.67,2.26,2.26,0,0,1-.12-1.94,4.16,4.16,0,0,1,.85-1.7,4.35,4.35,0,0,1,.12-4.12,5.12,5.12,0,0,0,.61-3.87c0-.65.24-1,.72-1a.56.56,0,0,0-.36-.61c-.24-.08-.28-.28-.12-.61a48.37,48.37,0,0,0,1.21-8,18.58,18.58,0,0,1,1.45-6.55c0-.32-.24-.64-.72-1a2,2,0,0,0,.72-1.21,8.78,8.78,0,0,1,.49-4.12,62.66,62.66,0,0,1,.85-7.51c.4-2.26.85-4.69,1.33-7.27q1-6.55,1.58-13.21a29.07,29.07,0,0,1,3.27-11.52,17.79,17.79,0,0,1,1.69-1,4.63,4.63,0,0,1,2.67-.24,42.34,42.34,0,0,1,2.67,4.61,56.76,56.76,0,0,1,0,7.39,17.52,17.52,0,0,1-1.46,5.94,69.08,69.08,0,0,1-1,7.15c-.48,2.66-1.05,5.13-1.69,7.39a1,1,0,0,0,.24.73q.24.24,0,.72a48,48,0,0,0-1.94,12.24,41.67,41.67,0,0,1-2.18,12.24,3.2,3.2,0,0,1-.24,2.67,2.3,2.3,0,0,0,.24,2.67q-1.21,6.06-2.18,11.51a116.72,116.72,0,0,0-1.46,12.24c0,.65-.08,1-.24,1a5.15,5.15,0,0,1-.24,2.79,5.66,5.66,0,0,0-.24,3,5,5,0,0,0-.49,2.3,2,2,0,0,1-.73,1.82,5.48,5.48,0,0,1-.24,3.63,6.22,6.22,0,0,0-.24,3.88,1.07,1.07,0,0,0-.61.61,1.09,1.09,0,0,1-.6.6c.48.33.72.65.72,1-.32,3.39-.6,6.47-.84,9.21s-.45,5.74-.61,9a.42.42,0,0,1-.48.48l-.25.25a6.91,6.91,0,0,1,.25,4.84,9.26,9.26,0,0,0-.25,4.61,12.45,12.45,0,0,0-.72,6.67,28.52,28.52,0,0,1,0,7.39,59.28,59.28,0,0,1,0,10.66,42,42,0,0,1,1.45,9q.24,4.61.73,8.48a2.23,2.23,0,0,0,.85.61c.24.08.2.36-.13.85a17.15,17.15,0,0,0,6.91-9.09q2.05-5.94,4.73-11.76a123.08,123.08,0,0,1,5.69-16.24q3.29-7.5,6.43-15.27c.32-.8.64-1.21,1-1.21a92.83,92.83,0,0,1,5.94-14.66,98.12,98.12,0,0,1,7.87-13,5.21,5.21,0,0,0,1.82-1.09,5.52,5.52,0,0,1,1.82-1.09c.64,1.13.32,2-1,2.67a2.79,2.79,0,0,0,.48.72,3.39,3.39,0,0,1,.49.73,5.14,5.14,0,0,0-1.34,2.42A3.4,3.4,0,0,1,1308.28,1084.56Zm-34.9-74.17a7.33,7.33,0,0,0-.49,2.78v2.55a4.32,4.32,0,0,0-.85,2.18q-.12,1.22-.36,2.43-1,9.45-3,20.35a153,153,0,0,0-2.54,21.09,3.34,3.34,0,0,0-.73,2.42,115.5,115.5,0,0,1-1.82,13.46q-1.33,6.9-2.06,13.93,0,1.71.12,2.91a10.26,10.26,0,0,1-.12,2.67c-.16,1.78-.32,3.48-.48,5.09s-.41,3.31-.73,5.09q-1,12.36-.85,24.12a89.89,89.89,0,0,0,2.79,21.93c-.32-2.26-.61-4.16-.85-5.7a20.26,20.26,0,0,1-.12-5,39.3,39.3,0,0,1-1.09-13.09,76,76,0,0,0,.12-12.85c.48-2.74.93-5.41,1.33-8a51,51,0,0,0,.61-8q.24-7,1-13.81t1.45-13.57a39.5,39.5,0,0,0,1.58-8.73,51.78,51.78,0,0,1,1.33-8.73,25.89,25.89,0,0,1,1-7.39,20.37,20.37,0,0,0,.48-7.88,46.77,46.77,0,0,0,1.94-7.27,42.82,42.82,0,0,0,.73-8A23.89,23.89,0,0,0,1273,1018a37.49,37.49,0,0,1,1.09-7.88h-.72Zm-12.12,121.43a2.08,2.08,0,0,0,.73-2.18,17.87,17.87,0,0,1-.25-2.91,21.62,21.62,0,0,1,.37-4.12,12.63,12.63,0,0,0,.12-3.88q.72,0,.72-.24c-.48-.65-.72-.89-.72-.73a10,10,0,0,0,.48-4.36,8.38,8.38,0,0,1,.73-4.36,5.1,5.1,0,0,1-.12-3.64,4,4,0,0,0,.12-2.91,1,1,0,0,0,.36-1,.6.6,0,0,1,.37-.73c.16-.32.08-.4-.25-.24s-.4.09-.24-.24c.65-1.13.65-1.86,0-2.18h.73a15,15,0,0,1-.12-5c.24-1.53.52-3,.85-4.48h-.73q-1.22,10.9-2.3,21.93A173.43,173.43,0,0,0,1261.26,1131.82Zm.24,7.51.24.25c-.48.81-.32,1.93.49,3.39a19.88,19.88,0,0,1-.24-5.33,13.62,13.62,0,0,0-.73-5.58c0,1.3,0,2.59.12,3.88a18.06,18.06,0,0,1-.12,3.64Zm.73,4.85c.16.48.24.53.24.12S1262.39,1143.86,1262.23,1144.18Zm.24,4.12a5.28,5.28,0,0,1,.36-2.06c.25-.56.05-.85-.6-.85V1147A3,3,0,0,0,1262.47,1148.3Zm.48,7.51c0-1.12-.24-1.77-.72-1.93a2.39,2.39,0,0,1,.24,1.09A.85.85,0,0,0,1263,1155.81Zm-.48-85.07c.33.16.53.08.61-.24s0-.49-.13-.49A.79.79,0,0,0,1262.47,1070.74Zm0,79h0Zm.73-83.14c0,.16-.12.24-.37.24s-.2-.08.12-.24Zm-.25,83.86c.17.33.29.33.37,0S1263.28,1150.16,1263,1150.48Zm1,3.4-.24-.25a.22.22,0,0,0-.24.25q-.24.24.24.24T1263.92,1153.88Zm.25,2.18v-.49h-.49v.49Zm.85-68.47c.08-.25-.13-.37-.61-.37v1.21A2.42,2.42,0,0,0,1265,1087.59Zm-.61,54.17q.24.48.24,0T1264.41,1141.76Zm.24-55.27a4.86,4.86,0,0,0,.49-4.12,4.77,4.77,0,0,1-.49,2.19A2.06,2.06,0,0,0,1264.65,1086.49Zm.49-4.36c.64-.16,1-.81,1.09-1.94s-.2-1.85-.85-2.18v2.06A10.86,10.86,0,0,1,1265.14,1082.13Zm.24,27.15c0-.32.08-.52.24-.61s.08-.2-.24-.36a.81.81,0,0,0-.24.6C1265.14,1109.16,1265.22,1109.28,1265.38,1109.28Zm-.24,1v.24q0,.24.12.12a.49.49,0,0,0,.12-.36V1110C1265.38,1110.17,1265.3,1110.25,1265.14,1110.25Zm.24,4.6v-.24h-.24v.24Zm-.24,1a.21.21,0,0,0,.24-.24A.21.21,0,0,0,1265.14,1115.82Zm.24-9q0-.48.12-.36c.08.08.28,0,.61-.36-.33,0-.49,0-.49-.12s.16-.13.49-.13h-.73Zm0,.49v.73c.16.16.28,0,.36-.37S1265.7,1107.18,1265.38,1107.34Zm.73-29.57q0-.24.24-.12a.39.39,0,0,0,.48-.12,1.6,1.6,0,0,1,0-1.22q-.48-.48-.48-.24c0,.16-.08.09-.24-.24a1.5,1.5,0,0,0-.49,1.09A.86.86,0,0,0,1266.11,1077.77Zm0,22.54q.24,0,.24-.36c0-.25-.08-.37-.24-.37a.75.75,0,0,0-.25.49A.22.22,0,0,0,1266.11,1100.31Zm0-24.48a4.6,4.6,0,0,0,1.33-3q.12-1.82.12-2.79a9.59,9.59,0,0,0-1.09,2.91A14.33,14.33,0,0,0,1266.11,1075.83Zm0,22.54c.32.33.48.24.48-.24s-.08-.73-.24-.73a1.11,1.11,0,0,1-.12.49A1.07,1.07,0,0,0,1266.11,1098.37Zm1.45-1.45a.81.81,0,0,0-.36-.73,1.72,1.72,0,0,1-.61-.73c-.48.33-.52.69-.12,1.09S1267.23,1097.08,1267.56,1096.92Zm0-27.63v-.73c0-.32-.24-.4-.73-.24C1266.83,1069,1267.08,1069.29,1267.56,1069.29Zm0-6.55c.32.81.56,1.21.73,1.21q.48-.48.24-.48a.21.21,0,0,1-.24-.24h.48a.64.64,0,0,0-.73-.73A.69.69,0,0,1,1267.56,1062.74Zm0,2.18c.32.33.52.29.61-.12s-.05-.61-.37-.61C1267.64,1064.19,1267.56,1064.44,1267.56,1064.92Zm0,.73v.48q.24.25.36-.24t-.36-.48Zm0,17.21a1.35,1.35,0,0,0,.85-1.46,12.69,12.69,0,0,1-.12-1.45,4.26,4.26,0,0,0-.37,1.33A9.15,9.15,0,0,1,1267.56,1082.86Zm.73-23a4.67,4.67,0,0,0,.85-2.06c.24-1,.2-1.65-.13-1.82a3.87,3.87,0,0,0-.36,1.94A3.84,3.84,0,0,1,1268.29,1059.83Zm.72,1.7c0-.81-.24-1.21-.72-1.21v1Q1268.29,1061.77,1269,1061.53Zm-.24,14.06h.24v-.24q-.24-.24-.24,0Zm.24-20.85c-.16.17-.12.37.13.61s.2,0-.13-.61h.49a1.11,1.11,0,0,1,.36-1q.36-.24.12-.72a1.12,1.12,0,0,0-.84.84A4.58,4.58,0,0,0,1269,1054.74Zm.61,17.21q.12-.72-.12,0Q1269.5,1072.69,1269.62,1072Zm.12-20.12a12.12,12.12,0,0,1,.73-1.69,1.62,1.62,0,0,0,0-1.7c0-.16-.16-.24-.49-.24a9.6,9.6,0,0,1-.24,2.06A2.53,2.53,0,0,0,1269.74,1051.83Zm.49,15a.69.69,0,0,0,.48-.24.82.82,0,0,1-.24-.61c0-.24-.16-.36-.49-.36.33.33.37.57.12.73S1269.9,1066.7,1270.23,1066.86Zm-.13,1.58c.08-.4,0-.45-.12-.12Q1270,1069,1270.1,1068.44Zm.37-22.67a1.44,1.44,0,0,0,.85-1.57c-.09-.73-.29-1.17-.61-1.33a8.87,8.87,0,0,1-.12,1.45A9,9,0,0,0,1270.47,1045.77Zm.24,13.82q.24,0,.12-.24T1270.71,1059.59Zm.49-17.45q-.5,0,0,.24c.32.16.32.09,0-.24q.48-.24.12-.36T1271.2,1042.14ZM1271,1040v.48h.73a.42.42,0,0,0-.48-.48Zm0,1.45h.73v-.73H1271Zm.73-2.66q.24.48.24,0T1271.68,1038.75Zm.24-2.67h.25c0-.32.07-.48.24-.48a.22.22,0,0,0,.24-.25c-.33,0-.48,0-.48-.12s-.09-.12-.25-.12Zm.25-2.42c.32.32.48.28.48-.13S1272.49,1033.17,1272.17,1033.66Zm.48-2.43q.48,0,.48-.24Q1272.65,1031,1272.65,1031.23Zm0,1q.24.49.24,0T1272.65,1032.2Zm.24-2.42q-.24.72-.12,0T1272.89,1029.78Zm.49-1.46v-.48a.53.53,0,0,0-.12-.37.44.44,0,0,1-.13-.36,3.35,3.35,0,0,1-.12.73C1272.93,1028.16,1273.05,1028.32,1273.38,1028.32Zm0-5.09c.32.17.48,0,.48-.36s-.16-.52-.48-.36Zm.72,2.43c.16-.32.16-.49,0-.49,0,.17-.12.24-.36.24s-.36.09-.36.25Q1273.86,1026.14,1274.1,1025.66Zm0-16.24c.16,0,.28-.25.37-.73s0-.73-.37-.73Zm.49,8q.24.48.36,0T1274.59,1017.42Zm3.88,139.85a2.36,2.36,0,0,1,.72-1.7c-.32,0-.56.24-.72.73S1278.3,1157.11,1278.47,1157.27Zm.72-3.88a3.06,3.06,0,0,1,.49-.73c-.33-.32-.61-.32-.85,0a2,2,0,0,0-.36,1.22A.76.76,0,0,0,1279.19,1153.39Zm0,1.94a1,1,0,0,1,.61-.85q.6-.36.12-.6a2.5,2.5,0,0,0-.85.72C1278.83,1154.93,1278.87,1155.17,1279.19,1155.33Zm1.46-4.85a1.13,1.13,0,0,0-.85.37q-.36.36.12.84c.49,0,.73-.4.73-1.21q.48,0,.24-.36T1280.65,1150.48Zm-.73-7c1-.64,1.21-1.21.73-1.69a1.05,1.05,0,0,1-.61.85Q1279.44,1143,1279.92,1143.45Zm.73-2.18q.48,0,.6-.6a2,2,0,0,1,.61-1.09c-.65,0-1,.2-1,.6A2.39,2.39,0,0,1,1280.65,1141.27Zm.24,7.76c.81,0,1.13-.24,1-.73C1281.21,1148.3,1280.89,1148.54,1280.89,1149Zm.24-1.21c.49.32.85.16,1.09-.49s.12-1-.36-1.21c.16.65.08,1-.24,1.09A.57.57,0,0,0,1281.13,1147.82Zm.73-9.21c-.48,0-.57.12-.24.36s.4.12.24-.36l.48-1a9.6,9.6,0,0,0,.49-1.22c-.49-.15-.73,0-.73.49A7.27,7.27,0,0,1,1281.86,1138.61Zm21.81-52.36c-.32.49-.72,1-1.21,1.7a3.25,3.25,0,0,0-.72,1.94,17.7,17.7,0,0,0-3,5.81,21.25,21.25,0,0,1-3,6.06,8.36,8.36,0,0,1-.85,3.52,15.64,15.64,0,0,1-1.82,3q-2.43,6.78-5.45,13.69a82.43,82.43,0,0,0-4.73,13.94,18.32,18.32,0,0,0,1.82-4.85,9.29,9.29,0,0,1,2.54-4.6.57.57,0,0,0-.36-.61.56.56,0,0,1-.36-.61,2.32,2.32,0,0,0,1.45-2.18,1.89,1.89,0,0,1,1.21-1.94c-.32,0-.48-.32-.48-1a1.05,1.05,0,0,0,.6-.72.58.58,0,0,1,.61-.49,39.78,39.78,0,0,1,3-7.51,30.44,30.44,0,0,0,2.79-7.76q.24,0,.24-.36t.48-.12a4.15,4.15,0,0,1,1.21-3.27,2.54,2.54,0,0,0,.73-2.79,7.16,7.16,0,0,0,1.94-3.52,4.77,4.77,0,0,1,1.94-3,3.41,3.41,0,0,1,.73-2.3c.48-.56,1-1.17,1.45-1.82-.32,0-.48,0-.48-.12S1303.83,1086.25,1303.67,1086.25Zm-20.84,60.35v.73h.48v-.73h-.48Zm5.82-17q.72,0,.72.48a28.26,28.26,0,0,0-2.42,5.82,59.1,59.1,0,0,1-1.94,5.82q0,.24.12.24t.12.24a6.78,6.78,0,0,1-.12,1.33,11.34,11.34,0,0,1-.36,1.34c-.49-.49-.53-.89-.12-1.21s.52-.65.36-1c-.48,0-.69.2-.6.6s-.21.61-.85.61c.8-2.58,1.65-5,2.54-7.39S1287.84,1131.9,1288.65,1129.64Zm-5.09,7q.48.48.48,0T1283.56,1136.67Zm.48,8.48q.74-.48.24.12C1284,1145.68,1283.88,1145.63,1284,1145.15Zm1.94-5.09c.32-.32.49-.24.49.24l-.25.24v.25C1286.06,1140.79,1286,1140.54,1286,1140.06Zm.85-1.21a.81.81,0,0,0-.36.73,1.51,1.51,0,0,1,0-1.22q.24-.72.72-.24A.81.81,0,0,1,1286.83,1138.85Zm1.09-4.12a.81.81,0,0,1,.12,1.09,1,1,0,0,1-.85.6A13.46,13.46,0,0,0,1287.92,1134.73Zm.73-9c-.65,0-1,.24-1,.73C1288.32,1126.49,1288.65,1126.24,1288.65,1125.76Zm-.73-.49a1,1,0,0,1,.73.25v-.73l-.25-.24A.76.76,0,0,1,1287.92,1125.27Zm.48,8.25c.16,0,.25.16.25.48s-.09.49-.25.49-.24-.16-.24-.49A.69.69,0,0,1,1288.4,1133.52Zm.25-9c.32-.16.48-.32.48-.49s-.16-.24-.48-.24Zm1.21,3.39a2.56,2.56,0,0,1-.24,1.46c-.49,0-.65-.25-.49-.73S1289.53,1127.94,1289.86,1127.94Zm-.49,2.91c.16,0,.25.24.25.73v.24A1.36,1.36,0,0,1,1289.37,1130.85Zm1.46-6.54c.32.32.32.93,0,1.81a3.63,3.63,0,0,1-1.21,1.82,6,6,0,0,1,.6-1.82A5.55,5.55,0,0,0,1290.83,1124.31Zm-.49,4.84a1.44,1.44,0,0,0-.24,1c0,.49-.16.73-.48.73C1289.94,1129.72,1290.18,1129.15,1290.34,1129.15Zm-.24-7.75c.16,0,.24-.2.24-.61s-.16-.52-.48-.36a.53.53,0,0,0-.12.6C1289.82,1121.28,1289.94,1121.4,1290.1,1121.4Zm.49,6.3q.72-.48.36,0a1.62,1.62,0,0,0-.36,1c-.33-.32-.37-.52-.12-.61S1290.74,1127.86,1290.59,1127.7Zm2.18-7.52h.24c0,.49.12.77.36.85s.37,0,.37-.36v.73c-.49-.33-.93-.2-1.34.36a5.17,5.17,0,0,0-.84,2.06,1.52,1.52,0,0,1,.24-1.82A4.54,4.54,0,0,0,1292.77,1120.18Zm-1,4.37a.68.68,0,0,1,.12,1,1.62,1.62,0,0,0-.36,1A2.92,2.92,0,0,1,1291.8,1124.55Zm0-.24q.48-.74.24,0T1291.8,1124.31Zm2.42-6.55a5,5,0,0,0-.36,1,4.71,4.71,0,0,0-.12,1.21c-.65,0-.81-.36-.49-1.09S1293.9,1117.76,1294.22,1117.76Zm-.48-5.09q-.49.49-.12,0T1293.74,1112.67Zm.72,3.39a2.45,2.45,0,0,0-.24,1.09c0,.41-.16.45-.48.13A5.89,5.89,0,0,1,1294.46,1116.06Zm-.24,3.16.24-.25A.22.22,0,0,0,1294.22,1119.22Zm.24-3.16a2,2,0,0,1,.73-1.21c.32,0,.36.17.12.49A2.24,2.24,0,0,1,1294.46,1116.06Zm.49,1.7h.24v.24h-.73v-.24Zm.24-1.94c.65,0,.81.16.49.49s-.49.56-.49.72a.54.54,0,0,1-.12-.6A2,2,0,0,0,1295.19,1115.82Zm.73-3.15c.48.65.24,1.3-.73,1.94a1,1,0,0,0,.36-1A1,1,0,0,1,1295.92,1112.67Zm0,0v-.48q.48,0,.36.24A.38.38,0,0,1,1295.92,1112.67Zm0,2.18a.22.22,0,0,1,.24.25l-.24.48Zm1-5.09a.82.82,0,0,1,.12,1.09c-.24.41-.45.77-.61,1.09a.74.74,0,0,1,0-1.09A1.77,1.77,0,0,0,1296.89,1109.76Zm-.24,2.91c.32-.16.44,0,.36.49s-.28.64-.61.48c-.16-.48-.12-.68.12-.61S1296.8,1113,1296.65,1112.67Zm1.45-5.09c0,1.13-.33,1.78-1,1.94a3.66,3.66,0,0,1,.73-1.94Zm-.73-4.85c.33,0,.4,0,.24-.12S1297.37,1102.57,1297.37,1102.73Zm.73,7.27c0-.32,0-.24-.12.25S1297.94,1110.65,1298.1,1110Zm.24-8.24v-.24l-.24-.48v.72Zm0,5.09c.32,0,.4.13.24.37s-.32.36-.48.36v-.73Zm0,0c0-.64.16-1,.49-1s.4.09.24.25a1,1,0,0,0-.24.72Zm1,.49a2.77,2.77,0,0,1-.12.85,7.31,7.31,0,0,1-.36.85,1.32,1.32,0,0,1-.37-1.22C1298.54,1107.34,1298.83,1107.18,1299.31,1107.34Zm.24-3.39q.5.24,0,.72a1.42,1.42,0,0,0-.48,1c-.33-.32-.33-.6,0-.85A1,1,0,0,0,1299.55,1104Zm1.46-3.64a3.54,3.54,0,0,1-.12,1.21,7,7,0,0,0-.37,1c.16.33.28.33.37,0s.28-.32.6,0a5.65,5.65,0,0,0-.72,1.58,3.14,3.14,0,0,1-1.22,1.57,3.61,3.61,0,0,0,1-2.18c0-.16-.32-.24-1-.24a3,3,0,0,0,.37-1.82C1299.83,1100.84,1300.2,1100.47,1301,1100.31Zm1.21.24c0,.81-.24,1.21-.73,1.21A1.45,1.45,0,0,1,1302.22,1100.55Zm.49-4.12c.48.33.52.73.12,1.21a2.09,2.09,0,0,0-.61,1.22c-.65-.33-.73-.73-.24-1.22A2,2,0,0,0,1302.71,1096.43Zm-.49,4.12a1.94,1.94,0,0,1,.24-1.21c.32,0,.45.2.37.61S1302.54,1100.55,1302.22,1100.55Zm1.21-5.33V1095q.73,0,0,.48C1303,1095.79,1303,1095.7,1303.43,1095.22Zm1-1.21q0,.24-.48.48-.5-.24,0-.48t0-.24Q1304.4,1093.77,1304.4,1094Zm.24,1.21a5.13,5.13,0,0,1-.12.85c-.08.4-.36.6-.85.6.16-.32.33-.64.49-1S1304.48,1095.22,1304.64,1095.22Zm2.91-14.54h-.24a2.78,2.78,0,0,1-.36.6c-.09.09-.12.37-.12.85a3,3,0,0,0-1.7,1.58,24.75,24.75,0,0,1-1.21,2.3,5.45,5.45,0,0,0,1.82-1.7,14.29,14.29,0,0,0,1.09-2.18A2.09,2.09,0,0,0,1307.55,1080.68Zm-2.66,11.87-.25.25A.22.22,0,0,1,1304.89,1092.55Zm0,1.46c.32-.49.48-.52.48-.12S1305.21,1094.33,1304.89,1094Zm3.39-14.06q.48.49.48,0T1308.28,1080Zm0,4.61q.48,0,.48.24T1308.28,1084.56Z"/><path class="cls-1" d="M1331.79,1088.68h-.25a6.8,6.8,0,0,1-1.09,1.93,4.27,4.27,0,0,0-.84,1.94c.64,0,1.12-.44,1.45-1.33a7.48,7.48,0,0,0,.48-2.54h.25c.32,0,.48-.25.48-.73a7.15,7.15,0,0,1-.73,3,4.87,4.87,0,0,1-1.45,2.06c-.16.65-.28,1.21-.36,1.69a1.84,1.84,0,0,1-.85,1.22,1.12,1.12,0,0,0,.12-.85c-.08-.24,0-.52.36-.85-.81.48-1.21,1-1.21,1.45a2.64,2.64,0,0,1-.48,1.46c0,.48,0,.57.12.24s.12-.32.12,0a1.88,1.88,0,0,1-.73,1.7,1.49,1.49,0,0,0-.48,1.69c.64-.15.85,0,.6.49a11.12,11.12,0,0,0-.6,1.45c-.49,0-.61-.2-.37-.6a2.11,2.11,0,0,0,.37-1.09c-.49,0-.77.2-.85.6a4.65,4.65,0,0,1-.37,1.09,1.27,1.27,0,0,1,0-1.09,2,2,0,0,0,.25-1.09,10.61,10.61,0,0,0-1.7,3.64.64.64,0,0,0-.73.72l.73-.72c.16,0,.28-.16.36-.49a.57.57,0,0,1,.61-.48,14.31,14.31,0,0,0-1,1.69,1.75,1.75,0,0,0,.24,1.94,5.75,5.75,0,0,1,1.21-2.66,1.44,1.44,0,0,1-.48,1.57,2,2,0,0,0-.73,1.58c0-.32,0-.49-.12-.49s-.12.17-.12.49h-.48a.24.24,0,1,0,.48,0,3.66,3.66,0,0,1-.85,2.3,8.21,8.21,0,0,1-4.36,5.46,8.59,8.59,0,0,1-2.79,3.39,1.18,1.18,0,0,0,1.34-.49,4.51,4.51,0,0,1,1.81-1.21A3,3,0,0,1,1317,1119a19.26,19.26,0,0,0-3.15,1.21.56.56,0,0,0,.36.61.56.56,0,0,1,.37.61.56.56,0,0,0-.61.36,1.55,1.55,0,0,1-.36.61,16.65,16.65,0,0,1-3.27.6,4.56,4.56,0,0,1-2.79-.6q-.73,0-.24.48c-1.3-.81-2.47-1.49-3.52-2.06a9.38,9.38,0,0,1-2.79-2.3,38.5,38.5,0,0,1-2.06-11.88,51.69,51.69,0,0,1,1.22-12.24,80.4,80.4,0,0,1,3.39-11.27,46.78,46.78,0,0,1,4.48-9,6.21,6.21,0,0,1,3.15-1.21,7.54,7.54,0,0,0,1.22,1c.48.33.56.81.24,1.46,0,.16-.16.24-.49.24a4.05,4.05,0,0,0-.24,1.94c-1,.64-1.41,1.86-1.33,3.63a5,5,0,0,1-1.09,3.88c-.49,2.42-1,5-1.7,7.76s-1.17,5.49-1.57,8.24a46.53,46.53,0,0,0-.49,8.24,29.51,29.51,0,0,0,1.33,8c.81.32,1.38.28,1.7-.13a13.14,13.14,0,0,1,1-1.09,3.88,3.88,0,0,1,1.82-2.66,4.16,4.16,0,0,0,1.82-2.91,71,71,0,0,0,6.06-10.54q2.65-5.7,5.57-11.27a63.22,63.22,0,0,1,3.51-6.19,39.11,39.11,0,0,0,3.28-6.18,44.21,44.21,0,0,0,3.51-4.48,29.35,29.35,0,0,1,3.52-4.24h1.93c-.32.32-.36.6-.12.85a1,1,0,0,1,.37.6c.64-.64,1.17-.85,1.57-.6s.85,0,1.34-.85a2,2,0,0,1,1.33.85,1.42,1.42,0,0,0,1.33.6,3.9,3.9,0,0,1,.37,1.94,3.65,3.65,0,0,0,.36,1.94,12.46,12.46,0,0,0-1.33,6.18,15.4,15.4,0,0,1-1.34,6.67h.49a6.42,6.42,0,0,0-.85,2.91,2.29,2.29,0,0,1-1.33,2.18c-.17.48,0,.77.36.85a.75.75,0,0,1,.61.84h-1.22a3.05,3.05,0,0,1-.36,1.58,2.62,2.62,0,0,0-.12,1.82c.16.32.36.4.61.24s.36-.08.36.24a8.46,8.46,0,0,0-.49,3.15v3.88c0,.33-.24.57-.72.73a6.69,6.69,0,0,1,1,3.75,12.11,12.11,0,0,0,.72,4.25,4.29,4.29,0,0,0,1.94-.85,4.34,4.34,0,0,1,1.94-.85,2.4,2.4,0,0,1,.12,1.94,5.27,5.27,0,0,0-.12,2.67,5,5,0,0,1-4,.24,20.46,20.46,0,0,1-4-1.94v.24h-.72a12.18,12.18,0,0,1-3.64-6.18,28.49,28.49,0,0,1-.85-8,67.1,67.1,0,0,1,.85-8.72c.48-3,.89-5.86,1.21-8.61-.32.49-.65,1-1,1.58s-.64,1.09-1,1.57c-.48-.64-.32-1.25.49-1.82a2.37,2.37,0,0,0,.72-2.78c-.32.81-.64,1.54-1,2.18a6.58,6.58,0,0,1-1.22,1.7c.16.64.28,1.13.37,1.45s-.12.73-.61,1.21q-.24,0-.12-.48a3.35,3.35,0,0,0,.12-.73A2.7,2.7,0,0,0,1331.79,1088.68Zm-30.3,6.3q-.48,1-.24.12T1301.49,1095Zm1.21-3.4a16.78,16.78,0,0,1,.85-1.93c.4-.81.36-1.38-.12-1.7a2.84,2.84,0,0,1-.49,1.82A2.17,2.17,0,0,0,1302.7,1091.58Zm21.33,5.58a14.36,14.36,0,0,1,1.09-1.82,3,3,0,0,0,.36-2.3c-.32.81-.64,1.57-1,2.3A4.6,4.6,0,0,0,1324,1097.16Zm10.18-19.63a21.56,21.56,0,0,0-2.42,3.39c-.65,1.13-1.3,2.34-1.94,3.64s-1.34,2.54-2.06,3.75a10,10,0,0,0-1.34,4.24,69.34,69.34,0,0,1,4.13-6.78,38.51,38.51,0,0,0,3.87-7.27,4.6,4.6,0,0,0,1.58-2.06,3.63,3.63,0,0,1,1.33-1.82v-1.46a.21.21,0,0,0-.24-.24,11.08,11.08,0,0,1-1.7,2.18A4.4,4.4,0,0,0,1334.21,1077.53Zm-5.82,19.14c0,.33-.08.41-.24.25S1328.07,1096.67,1328.39,1096.67Zm.25-5.09a36.35,36.35,0,0,0,4.36-7,35.64,35.64,0,0,1,4.36-7,1.29,1.29,0,0,1,0-1.09c.16-.41.16-.69,0-.85q-2.43,3.87-4.6,7.87T1328.64,1091.58Zm.48,1.46v.73c.32.16.49.08.49-.25s-.09-.48-.25-.48Zm1.7,0q1,0,.48.48T1330.82,1093Zm4.12-7c.16-.49.24-.52.24-.12S1335.1,1086.33,1334.94,1086Zm1.94-6.06a.44.44,0,0,0-.49-.49v.49C1336.71,1080.28,1336.88,1080.28,1336.88,1080Zm.48,11.63v-1c-.16.33-.28.49-.36.49S1337,1091.26,1337.36,1091.58Zm1,14.55a14.42,14.42,0,0,1,.24-2.55,6.77,6.77,0,0,0-.24-3,8.09,8.09,0,0,0-.61,3C1337.64,1105,1337.85,1105.8,1338.33,1106.13Zm-.24,1.45q.48.5.48-.36c0-.57-.16-.69-.48-.37C1337.6,1106.85,1337.6,1107.1,1338.09,1107.58Zm0-14.54a3.3,3.3,0,0,1,.24,3.63,4.14,4.14,0,0,0-.24,3.64c.32,0,.52-.28.6-.85a14.76,14.76,0,0,0,.13-2.06,21.69,21.69,0,0,1,.6-5,9.53,9.53,0,0,0,.12-4.48,4.9,4.9,0,0,0-.48,3.15C1339.22,1092.39,1338.9,1093,1338.09,1093Zm.73-10.18v.24q.48.24.48-.24a.43.43,0,0,0-.48-.49Zm1,24.24-.25.24c0,.32.08.53.25.6a1.47,1.47,0,0,1,.48.61,19.92,19.92,0,0,1,.12-6.66,33.45,33.45,0,0,0,.61-6.91,35.77,35.77,0,0,0-1.46,6.18A14.39,14.39,0,0,0,1339.79,1107.1Zm0,2.66h.48v-.24h-.48Zm.36-23.63c.08-.56.12-.61.12-.12Q1340,1087,1340.15,1086.13Zm.85,7.88q.48-.24.48-.12c0,.08.16.12.49.12-.49-.16-.57-.49-.25-1a1.05,1.05,0,0,0-.24-1.46,2.46,2.46,0,0,1-.48,1.58C1340.67,1093.56,1340.67,1093.85,1341,1094Zm.85,12a.49.49,0,0,1,.36-.13v-1.21a1.05,1.05,0,0,0-.85.49.68.68,0,0,0,.12,1A.53.53,0,0,0,1341.85,1106Zm-.13,2.54c0,.49.08.73.25.73,0-.49-.09-.73-.25-.73q0-.48-.24-.24T1341.72,1108.55Zm.49-17.94c0-.8-.08-1.21-.24-1.21a4,4,0,0,1-.12,1Q1341.72,1090.87,1342.21,1090.61Zm1.45,3.4q.24.24-.36.48c-.41.17-.61.09-.61-.24s.08-.4.25-.24S1343.34,1094.17,1343.66,1094Zm-.72,16.72c0-.32-.09-.32-.25,0C1342.85,1111.06,1342.94,1111.06,1342.94,1110.73Zm1.33-23.51q-.36,0-.12.24Q1344.63,1087.22,1344.27,1087.22Z"/><path class="cls-2" d="M680.31,18.51a255.68,255.68,0,0,1,182,75.38c100.34,100.34,100.34,263.62,0,364a257.37,257.37,0,0,1-364,0C398,357.51,398,194.23,498.33,93.89a255.68,255.68,0,0,1,182-75.38m0-18.51A275,275,0,0,0,485.25,80.8c-107.74,107.73-107.74,282.41,0,390.14a275.86,275.86,0,0,0,390.13,0c107.74-107.73,107.74-282.41,0-390.14A275,275,0,0,0,680.31,0Z"/><path class="cls-2" d="M635.12,221.29a23.45,23.45,0,0,1,37.41,2.08l34.23,50.9a12.17,12.17,0,0,1,.5,12.77l-108.85,193,148.43-199a23.53,23.53,0,0,1,37-.85L908,431.62a274.79,274.79,0,0,0,48-166C950.79,122.38,834.14,5.57,690.93.2,533.73-5.7,404.45,120,404.45,275.87a274.46,274.46,0,0,0,50.47,159C524.35,352.64,600,263,635.12,221.29Z"/></g></g></svg>