<?xml version="1.0" encoding="UTF-8" standalone="no"?>
<!-- Generator: Adobe Illustrator 25.2.0, SVG Export Plug-In . SVG Version: 6.00 Build 0)  -->

<svg
   version="1.1"
   id="katman_1"
   x="0px"
   y="0px"
   viewBox="0 0 2169.3799 414.04001"
   xml:space="preserve"
   sodipodi:docname="Finansbank_Logo.svg"
   width="2169.3799"
   height="414.04001"
   inkscape:version="1.4 (86a8ad7, 2024-10-11)"
   xmlns:inkscape="http://www.inkscape.org/namespaces/inkscape"
   xmlns:sodipodi="http://sodipodi.sourceforge.net/DTD/sodipodi-0.dtd"
   xmlns="http://www.w3.org/2000/svg"
   xmlns:svg="http://www.w3.org/2000/svg"><defs
   id="defs7" /><sodipodi:namedview
   id="namedview7"
   pagecolor="#ffffff"
   bordercolor="#000000"
   borderopacity="0.25"
   inkscape:showpageshadow="2"
   inkscape:pageopacity="0.0"
   inkscape:pagecheckerboard="0"
   inkscape:deskcolor="#d1d1d1"
   inkscape:zoom="0.3132"
   inkscape:cx="1087.1648"
   inkscape:cy="209.13155"
   inkscape:window-width="1920"
   inkscape:window-height="1001"
   inkscape:window-x="-9"
   inkscape:window-y="-9"
   inkscape:window-maximized="1"
   inkscape:current-layer="g7" />
<style
   type="text/css"
   id="style1">
	.st0{fill-rule:evenodd;clip-rule:evenodd;fill:#FFFFFF;fill-opacity:0;}
	.st1{fill-rule:evenodd;clip-rule:evenodd;fill:#305DA2;}
	.st2{fill-rule:evenodd;clip-rule:evenodd;fill:#0C0E0F;}
</style>
<g
   id="g7"
   transform="translate(-165.31,-1042.98)">
	<path
   class="st0"
   d="M 132.45,132.45 H 2367.56 V 2367.56 H 132.45 Z"
   id="path1" />
	<path
   class="st1"
   d="m 165.31,1210.64 h 414.04 v 75.29 H 165.31 Z"
   id="path2" />
	<path
   class="st1"
   d="m 336.4,1042.99 h 75.28 v 414.03 H 336.4 Z"
   id="path3" />
	<path
   class="st1"
   d="m 528.02,1457.01 -362.71,-362.7 54.75,-51.33 359.29,359.29 z"
   id="path4" />
	<path
   class="st1"
   d="m 220.06,1457.01 -54.75,-54.74 362.71,-359.29 51.33,51.33 c 0,0.01 -359.29,362.7 -359.29,362.7 z"
   id="path5" />
	<path
   class="st2"
   d="m 822.29,1371.47 h 47.9 V 1186.7 h -47.9 z m 68.43,0 h 44.48 l -3.42,-126.6 h 3.42 l 61.6,126.6 h 61.58 V 1186.7 h -44.48 v 126.6 l -61.6,-126.6 h -61.58 z"
   id="path6" />
	<path
   class="st2"
   d="m 647.78,1371.47 h 65.02 v -99.23 h 92.38 v -47.9 H 712.8 v -51.33 h 153.98 v -47.9 h -219 z m 420.87,0 h 47.9 l 17.11,-41.06 h 68.43 l 13.69,41.06 h 54.74 l -71.86,-184.77 h -61.58 z m 123.18,-75.27 h -47.9 l 23.96,-71.86 z m 88.96,75.27 h 44.48 l -3.42,-126.6 65.03,126.6 h 61.6 V 1186.7 h -44.5 v 126.6 l -61.57,-126.6 h -61.61 v 184.77 z m 184.78,-3.42 c 13.68,3.42 37.64,6.85 54.74,6.85 41.06,0 82.12,-13.69 82.12,-61.6 0,-65 -88.96,-47.9 -88.96,-75.28 0,-17.11 20.54,-17.11 34.22,-17.11 13.68,0 27.38,0 41.06,6.84 l 3.42,-37.64 c -13.68,-3.42 -30.8,-6.84 -47.9,-6.84 -37.64,0 -82.12,13.68 -82.12,58.16 0,65.02 88.96,44.48 88.96,78.71 0,13.69 -17.1,17.11 -30.8,17.11 -20.52,0 -37.64,-3.42 -51.32,-10.27 z m 150.56,3.42 h 75.28 c 34.2,0 71.83,-10.26 71.83,-54.74 0,-20.54 -10.26,-34.22 -34.22,-41.06 20.54,-6.85 30.8,-20.54 30.8,-41.07 0,-34.22 -23.93,-47.9 -58.16,-47.9 h -85.54 v 184.77 z m 47.9,-78.69 h 13.68 c 17.13,0 37.64,3.42 37.64,20.52 0,20.54 -17.1,23.96 -37.64,23.96 h -13.68 z m 0,-71.86 h 13.68 c 17.13,0 34.22,3.42 34.22,20.54 0,13.69 -17.1,17.11 -34.22,17.11 h -13.68 z m 99.22,150.55 h 51.34 l 13.68,-41.06 h 68.44 l 13.68,41.06 h 54.74 L 1893.3,1186.7 h -58.19 z m 123.2,-75.27 h -44.5 l 23.96,-71.86 z m 88.97,75.27 h 44.47 v -126.6 l 65,126.6 h 61.6 V 1186.7 H 2102 v 126.6 l -65.02,-126.6 h -61.57 z m 188.17,0 h 51.34 v -85.54 l 58.15,85.54 h 61.61 l -75.28,-99.23 68.44,-85.54 h -58.19 l -54.73,75.28 v -75.28 h -51.34 z"
   id="path7" />
</g>
</svg>
