<svg xmlns="http://www.w3.org/2000/svg" width="249.815" height="60.572" viewBox="0 0 249.815 60.572">
  <g id="Group_17" data-name="Group 17" transform="translate(-337.342 -230.818)">
    <path id="Path_4" data-name="Path 4" d="M60.268,15.96A32.368,32.368,0,1,0,16.151,60.38l.008-.013a1.406,1.406,0,1,0,1.265-2.5,29.553,29.553,0,1,1,40.53-40.286l.021-.011a1.406,1.406,0,1,0,2.293-1.607" transform="translate(337.342 230.818)" fill="#00142c"/>
    <g id="Group_8" data-name="Group 8" transform="matrix(0.998, -0.07, 0.07, 0.998, 345.137, 242.426)">
      <path id="Path_3" data-name="Path 3" d="M34.06.194l0,0A.7.7,0,1,0,33.1,1.229,22.514,22.514,0,0,1,1.2,33.006h0a.7.7,0,0,0-1.007.981h0l0,0,.026.025A23.921,23.921,0,0,0,34.06.194" transform="translate(5.498 5.478)" fill="#00142c"/>
      <circle id="Ellipse_1" data-name="Ellipse 1" cx="22.597" cy="22.597" r="22.597" fill="#fff" opacity="0"/>
    </g>
    <g id="Group_10" data-name="Group 10" transform="translate(351.477 246.371)">
      <path id="Path_1" data-name="Path 1" d="M144.838,127.316A17.419,17.419,0,1,1,127.419,109.9a17.419,17.419,0,0,1,17.419,17.419" transform="translate(-110 -109.897)" fill="#34a2e6"/>
      <path id="Path_2" data-name="Path 2" d="M195.663,182.843a2.9,2.9,0,0,0-2.832-2.9v0H181.147a2.9,2.9,0,0,0-2.9,2.9v11.573h0c0,.013,0,.026,0,.04a2.9,2.9,0,1,0,5.806,0c0-.013,0-.026,0-.04h0v-8.67h8.781v0a2.9,2.9,0,0,0,2.832-2.9" transform="translate(-168.338 -169.773)" fill="#fff"/>
    </g>
    <path id="Path_22" data-name="Path 22" d="M533.775,144.366a3.518,3.518,0,0,0-3.339-3.513v0H514.611a3.518,3.518,0,0,0-3.518,3.518v20.485h.019a3.518,3.518,0,0,0,7,0h.019V147.884h12.307v0a3.518,3.518,0,0,0,3.339-3.513" transform="translate(-101.832 109.984)" fill="#34a2e6"/>
    <path id="Path_26" data-name="Path 26" d="M702.826,140.9a12.216,12.216,0,0,0-1.312-2.935,13.422,13.422,0,0,0-2.026-2.532,13.164,13.164,0,0,0-2.593-1.984,12.953,12.953,0,0,0-3.028-1.281,12.209,12.209,0,0,0-3.328-.455,12.668,12.668,0,0,0-3.576.5,12.9,12.9,0,0,0-3.141,1.385,12.566,12.566,0,0,0-2.615,2.139,13.537,13.537,0,0,0-1.984,2.738,13.982,13.982,0,0,0-1.705,6.717,12.99,12.99,0,0,0,1.116,5.394,13.729,13.729,0,0,0,3.017,4.31,14.059,14.059,0,0,0,9.776,3.9,12.481,12.481,0,0,0,4.816-.94,13.662,13.662,0,0,0,1.293-.618,3.246,3.246,0,0,0,.535-.3l.008,0h0a3.234,3.234,0,0,0-3.326-5.527c-.246.113-.5.22-.773.316a10.882,10.882,0,0,1-1.519.413,7.866,7.866,0,0,1-1.529.155,7.382,7.382,0,0,1-1.757-.228,5.811,5.811,0,0,1-1.757-.754,5.245,5.245,0,0,1-1.457-1.415,5.135,5.135,0,0,1-.838-2.212h14.881a9.391,9.391,0,0,0,1.974-.155,1.559,1.559,0,0,0,.961-.558,1.988,1.988,0,0,0,.32-1.085q.031-.682.031-1.757a11.188,11.188,0,0,0-.465-3.214m-6.942.9H685.372c0-2.533,2.353-4.586,5.256-4.586,2.868,0,5.2,2,5.254,4.495.017.03.035.061.052.092Z" transform="translate(-244.838 117.835)" fill="#34a2e6"/>
    <path id="Path_44" data-name="Path 44" d="M883.506,101.351h-3.525L880,96.312a2.048,2.048,0,0,0-.229-1.035.961.961,0,0,0-.907-.394h-.155a.906.906,0,0,0-.174.018l-4.159,1.448a4.238,4.238,0,0,0-1.072.54,1,1,0,0,0-.375.852l-.018,3.609H869.7v.011c-.087-.006-.175-.011-.264-.011a3.518,3.518,0,1,0,0,7.036c.089,0,.177,0,.264-.011v.011h3.254v16.967h.019a3.518,3.518,0,0,0,7,0h.019V108.387h3.518a3.518,3.518,0,0,0,0-7.036" transform="translate(-406.716 149.481)" fill="#04132e"/>
    <path id="Path_43" data-name="Path 43" d="M1029.484,140.959a13.569,13.569,0,1,0,13.569,13.569,13.569,13.569,0,0,0-13.569-13.569m0,20.11a6.541,6.541,0,1,1,6.541-6.541,6.541,6.541,0,0,1-6.541,6.541" transform="translate(-535.573 109.888)" fill="#04132e"/>
    <path id="Path_42" data-name="Path 42" d="M1253.816,144.161a3.518,3.518,0,1,0-7.036,0q0,.086,0,.172h0V148.1h0v6.687c0,.021,0,.041,0,.062h0a5.347,5.347,0,0,1-8.091,4.5h0q-.107-.064-.21-.133l-.006,0q-.1-.068-.2-.14l-.01-.007c-.064-.048-.127-.1-.189-.147l-.012-.009q-.092-.075-.18-.154l-.013-.012q-.088-.079-.172-.162l-.013-.013-.06-.062c-.064-.075-.132-.148-.2-.217l-.07-.079-.013-.015q-.075-.089-.146-.182l-.013-.017c-.047-.062-.092-.125-.137-.188l-.013-.018c-.044-.064-.086-.129-.128-.195l-.012-.019c-.041-.066-.08-.133-.118-.2l-.012-.02c-.037-.067-.073-.136-.108-.205l-.011-.022c-.034-.069-.066-.139-.1-.209l-.011-.024c-.03-.07-.059-.14-.087-.212l-.011-.028c-.027-.07-.052-.142-.076-.214l-.011-.031c-.023-.071-.044-.143-.064-.215l-.01-.036c-.019-.071-.037-.143-.053-.215l-.01-.041c-.016-.071-.029-.143-.042-.215l-.008-.046c-.012-.071-.022-.142-.031-.213,0-.018,0-.035-.007-.053-.008-.07-.014-.14-.02-.211,0-.02,0-.04,0-.06,0-.069-.007-.138-.009-.207,0-.046,0-.091,0-.137v.092h0v-8.59h0v-2.1a3.518,3.518,0,0,0-7.036,0v12.256h0a10.8,10.8,0,0,0,17.75,8.239,3.518,3.518,0,0,0,7-.011h.016V144.332h0c0-.057,0-.114,0-.172" transform="translate(-718.835 110.16)" fill="#04132e"/>
    <path id="Path_41" data-name="Path 41" d="M1443.323,160.126a3.5,3.5,0,0,0-1.522.345l-.006-.013a6.542,6.542,0,1,1-.083-11.9,3.518,3.518,0,1,0,3.2-6.266v0l-.044-.02-.1-.044a13.569,13.569,0,1,0-.367,24.763,3.518,3.518,0,0,0-1.082-6.866" transform="translate(-887.52 109.888)" fill="#04132e"/>
    <path id="Path_40" data-name="Path 40" d="M1624.567,112.832a10.8,10.8,0,0,0-17.733-8.254l.024-3.107v0l.022-2.893h-.005l.013-2.144a2.047,2.047,0,0,0-.229-1.035.961.961,0,0,0-.907-.394h-.156a.909.909,0,0,0-.174.018l-4.159,1.448a4.237,4.237,0,0,0-1.071.54.973.973,0,0,0-.372.774h0v.035c0,.014,0,.028,0,.043l-.018,3.609h.017l-.017,23.448h0c0,.057,0,.114,0,.171a3.518,3.518,0,0,0,7.036,0c0-.057,0-.115,0-.171h0v-3.767h0v-6.687c0-.021,0-.041,0-.062h0a5.347,5.347,0,0,1,8.091-4.5h0q.107.064.21.133l.006,0q.1.068.2.14l.01.007q.1.071.189.147l.012.009c.062.05.121.1.18.154l.013.012c.059.052.116.107.172.161l.013.013.06.062c.064.075.132.148.2.218l.07.079.013.015q.075.089.146.182l.013.017q.07.093.137.189l.013.018q.066.1.128.195l.012.019q.061.1.118.2l.012.02c.038.067.073.136.108.205l.011.022q.051.1.1.209l.011.025c.03.07.059.14.086.212l.011.028q.04.106.076.214l.01.032c.023.071.044.143.065.215l.01.036c.019.071.037.143.053.215l.009.041c.016.071.029.143.042.215,0,.015.006.031.008.046.012.071.022.142.031.213l.007.053c.008.07.014.14.019.211,0,.02,0,.04,0,.06,0,.069.007.138.009.207,0,.046,0,.091,0,.137V114.4h0v8.59h0v2.1a3.518,3.518,0,0,0,7.036,0V112.833Z" transform="translate(-1037.41 149.378)" fill="#04132e"/>
  </g>
</svg>
